<?xml version="1.0" standalone="no"?>
<!DOCTYPE svg PUBLIC "-//W3C//DTD SVG 1.1//EN" "http://www.w3.org/Graphics/SVG/1.1/DTD/svg11.dtd" >
<svg xmlns="http://www.w3.org/2000/svg" xmlns:xlink="http://www.w3.org/1999/xlink" version="1.1">
<metadata>
Created by FontForge 20170731 at Fri Sep 12 16:34:17 2008
 By Aleksey,,,
Copyright (C) 2005, 2008 Hoefler &#38; Frere-Jones. http://www.typography.com
</metadata>
<defs>
<font id="GothamCondensed-ThinItalic" horiz-adv-x="500" >
  <font-face 
    font-family="Gotham Condensed Thin"
    font-weight="250"
    font-style="italic"
    font-stretch="condensed"
    units-per-em="1000"
    panose-1="0 0 0 0 0 0 0 0 0 0"
    ascent="800"
    descent="-200"
    x-height="521"
    cap-height="700"
    bbox="-99 -200 691 909"
    underline-thickness="50"
    underline-position="-200"
    unicode-range="U+0020-FB04"
  />
<missing-glyph 
d="M0 -200v1000h500v-1000h-500zM50 -76l172 376l-172 376v-752zM71 -150h358l-179 390zM250 360l179 390h-358zM450 -76v752l-172 -376z" />
    <glyph glyph-name="f_f" unicode="ff" horiz-adv-x="390" 
d="M22 0l97 502h-54l4 19h54l14 71q14 75 43 99q21 17 50 17q24 0 43 -8l-4 -20q-19 8 -40 8q-25 0 -41.5 -17t-25.5 -62l-17 -88h88l-4 -19h-88l-97 -502h-22zM221 0l97 502h-54l4 19h54l14 71q14 75 43 99q21 17 50 17q24 0 43 -8l-4 -20q-19 8 -40 8q-25 0 -41.5 -17
t-25.5 -62l-17 -88h88l-4 -19h-88l-97 -502h-22z" />
    <glyph glyph-name="fi" unicode="fi" horiz-adv-x="335" 
d="M22 0l97 502h-54l4 19h54l14 71q14 75 43 99q21 17 50 17q24 0 43 -8l-4 -20q-19 8 -40 8q-25 0 -41.5 -17t-25.5 -62l-17 -88h88l-4 -19h-88l-97 -502h-22zM207 0l100 521h21l-100 -521h-21zM330 650l11 57h25l-11 -57h-25z" />
    <glyph glyph-name="fl" unicode="fl" horiz-adv-x="335" 
d="M22 0l97 502h-54l4 19h54l14 71q14 75 43 99q21 17 50 17q24 0 43 -8l-4 -20q-19 8 -40 8q-25 0 -41.5 -17t-25.5 -62l-17 -88h88l-4 -19h-88l-97 -502h-22zM207 0l136 707h21l-137 -707h-20z" />
    <glyph glyph-name="f_f_i" unicode="ffi" horiz-adv-x="534" 
d="M22 0l97 502h-54l4 19h54l14 71q14 75 43 99q21 17 50 17q24 0 43 -8l-4 -20q-19 8 -40 8q-25 0 -41.5 -17t-25.5 -62l-17 -88h88l-4 -19h-88l-97 -502h-22zM221 0l97 502h-54l4 19h54l14 71q14 75 43 99q21 17 50 17q24 0 43 -8l-4 -20q-19 8 -40 8q-25 0 -41.5 -17
t-25.5 -62l-17 -88h88l-4 -19h-88l-97 -502h-22zM406 0l100 521h21l-100 -521h-21zM529 650l11 57h25l-11 -57h-25z" />
    <glyph glyph-name="f_f_l" unicode="ffl" horiz-adv-x="534" 
d="M22 0l97 502h-54l4 19h54l14 71q14 75 43 99q21 17 50 17q24 0 43 -8l-4 -20q-19 8 -40 8q-25 0 -41.5 -17t-25.5 -62l-17 -88h88l-4 -19h-88l-97 -502h-22zM221 0l97 502h-54l4 19h54l14 71q14 75 43 99q21 17 50 17q24 0 43 -8l-4 -20q-19 8 -40 8q-25 0 -41.5 -17
t-25.5 -62l-17 -88h88l-4 -19h-88l-97 -502h-22zM406 0l136 707h21l-137 -707h-20z" />
    <glyph glyph-name=".notdef" 
d="M0 -200v1000h500v-1000h-500zM50 -76l172 376l-172 376v-752zM71 -150h358l-179 390zM250 360l179 390h-358zM450 -76v752l-172 -376z" />
    <glyph glyph-name=".null" horiz-adv-x="0" 
 />
    <glyph glyph-name="nonmarkingreturn" horiz-adv-x="333" 
 />
    <glyph glyph-name="space" unicode=" " horiz-adv-x="158" 
 />
    <glyph glyph-name="exclam" unicode="!" horiz-adv-x="132" 
d="M46 183l81 447l14 70h22l-14 -70l-93 -447h-10zM2 0l10 50h27l-10 -50h-27z" />
    <glyph glyph-name="quotedbl" unicode="&#x22;" horiz-adv-x="206" 
d="M82 458l47 242h25l-2 -9l-58 -233h-12zM187 458l47 242h25l-2 -9l-58 -233h-12z" />
    <glyph glyph-name="numbersign" unicode="#" horiz-adv-x="368" 
d="M40 0l40 199h-69l4 20h69l53 262h-72l4 20h72l40 199h19l-40 -199h126l40 199h19l-40 -199h69l-4 -20h-69l-53 -262h72l-4 -20h-72l-40 -199h-19l40 199h-126l-40 -199h-19zM103 219h126l53 262h-126z" />
    <glyph glyph-name="dollar" unicode="$" horiz-adv-x="323" 
d="M248 768h19l-13 -65q51 -6 92 -41l-4 -23q-46 40 -92 46l-60 -312q55 -54 71.5 -96t16.5 -92q0 -73 -42 -131.5t-120 -59.5l-18 -93h-19l18 94q-61 5 -109 53l5 23q47 -52 108 -58l68 351q-85 88 -85 173q0 67 40 117.5t109 50.5h2zM256 190q0 40 -13.5 76.5t-57.5 81.5
l-65 -335q66 1 101 54.5t35 122.5zM106 536q0 -75 68 -146l58 296h-1q-59 0 -92 -44t-33 -106z" />
    <glyph glyph-name="percent" unicode="%" horiz-adv-x="484" 
d="M24 0l227 353l223 347h21l-227 -353l-223 -347h-21zM151 372q-36 0 -56.5 28t-20.5 81q0 55 19.5 111t49.5 86q27 27 58 27q36 0 56.5 -28t20.5 -81q0 -55 -19.5 -111t-49.5 -86q-27 -27 -58 -27zM151 389q23 0 44 21q28 28 46 80.5t18 104.5q0 93 -58 93q-23 0 -44 -21
q-28 -28 -46 -80.5t-18 -104.5q0 -93 58 -93zM318 -5q-36 0 -56.5 28t-20.5 81q0 55 19.5 111t49.5 86q27 27 58 27q36 0 56.5 -28t20.5 -81q0 -55 -19.5 -111t-49.5 -86q-27 -27 -58 -27zM318 12q23 0 44 21q28 28 46 80.5t18 104.5q0 93 -58 93q-23 0 -44 -21
q-28 -28 -46 -80.5t-18 -104.5q0 -93 58 -93z" />
    <glyph glyph-name="ampersand" unicode="&#x26;" horiz-adv-x="392" 
d="M351 323l20 -6q-40 -124 -83 -198l43 -116l-20 -10l-37 102q-67 -102 -147 -102q-56 0 -88 42.5t-32 105.5q0 83 41 143.5t117 111.5q-35 98 -35 164q0 63 33 105t84 42q45 0 71.5 -31.5t26.5 -77.5q0 -60 -38 -109t-116 -100l89 -246q39 74 71 180zM127 13q74 0 138 106
l-93 258q-143 -95 -143 -230q0 -60 26.5 -97t71.5 -37zM152 560q0 -61 32 -152q67 45 103 88t36 100q0 40 -21 66t-55 26q-44 0 -69.5 -37t-25.5 -91z" />
    <glyph glyph-name="quotesingle" unicode="'" horiz-adv-x="91" 
d="M82 458l47 242h25l-2 -9l-58 -233h-12z" />
    <glyph glyph-name="parenleft" unicode="(" horiz-adv-x="214" 
d="M126 -121q-98 114 -98 306q0 139 47.5 255t128.5 197q37 37 82 65l-4 -23q-30 -20 -61 -51q-78 -78 -125 -192t-47 -251q0 -175 81 -282z" />
    <glyph glyph-name="parenright" unicode=")" horiz-adv-x="214" 
d="M101 702q98 -114 98 -306q0 -139 -47.5 -255t-128.5 -197q-37 -37 -82 -65l4 23q30 20 61 51q78 78 125 192t47 251q0 175 -81 282z" />
    <glyph glyph-name="asterisk" unicode="*" horiz-adv-x="260" 
d="M175 431l-22 5l30 121l-94 -41l-9 21l98 32l-79 68l15 17l73 -75l18 123l22 -5l-30 -120l96 42l8 -22l-99 -32l79 -67l-16 -16l-72 73z" />
    <glyph glyph-name="plus" unicode="+" horiz-adv-x="328" 
d="M143 207l27 135h-126l4 20h125l27 135h20l-27 -135h126l-4 -20h-125l-27 -135h-20z" />
    <glyph glyph-name="comma" unicode="," horiz-adv-x="85" 
d="M-40 -60l-5 13q17 9 23 17.5t9 29.5h-11l10 50h28l-11 -58q-4 -23 -13.5 -33t-29.5 -19z" />
    <glyph glyph-name="hyphen" unicode="-" horiz-adv-x="242" 
d="M42 285l3 20h168l-3 -20h-168z" />
    <glyph glyph-name="period" unicode="." horiz-adv-x="88" 
d="M-21 0l10 50h28l-10 -50h-28z" />
    <glyph glyph-name="slash" unicode="/" horiz-adv-x="242" 
d="M-75 -98l386 866h22l-386 -866h-22z" />
    <glyph glyph-name="zero" unicode="0" horiz-adv-x="360" 
d="M264 707q96 0 96 -164q0 -117 -40.5 -280.5t-109.5 -232.5q-37 -37 -79 -37q-96 0 -96 164q0 117 40.5 280.5t109.5 232.5q37 37 79 37zM133 13q31 0 61 30q62 62 103 223.5t41 277.5q0 143 -76 143q-31 0 -61 -30q-62 -62 -103 -223.5t-41 -277.5q0 -143 76 -143z" />
    <glyph glyph-name="one" unicode="1" horiz-adv-x="177" 
d="M38 0l131 671l-81 -41l4 25l87 45h17l-136 -700h-22z" />
    <glyph glyph-name="two" unicode="2" horiz-adv-x="299" 
d="M-28 0l3 16l217 328q60 88 81 138t21 98q0 50 -26.5 77t-69.5 27q-46 0 -96 -33l5 25q47 28 92 28q53 0 85 -33.5t32 -90.5t-25.5 -110.5t-87.5 -146.5l-200 -303h225l-4 -20h-252z" />
    <glyph glyph-name="three" unicode="3" horiz-adv-x="289" 
d="M63 -4q-51 0 -95 27l4 23q46 -29 92 -29q73 0 117 60t44 134q0 119 -120 156l3 14l202 300h-214l4 19h238l-4 -18l-204 -302q117 -47 117 -169q0 -100 -66 -166q-49 -49 -118 -49z" />
    <glyph glyph-name="four" unicode="4" horiz-adv-x="323" 
d="M178 0l33 169h-209l3 16l308 520h22l-100 -516h55l-4 -20h-55l-33 -169h-20zM28 189h187l92 469z" />
    <glyph glyph-name="five" unicode="5" horiz-adv-x="304" 
d="M84 -5q-51 0 -88 28l5 22q39 -30 84 -30q69 0 117 71.5t48 169.5q0 70 -30 102t-76 32q-34 0 -63 -12l-13 12l74 310h190l-4 -20h-171l-66 -278q30 8 55 8q57 0 92 -39t34 -121q-1 -59 -22 -115t-57 -92q-48 -48 -109 -48z" />
    <glyph glyph-name="six" unicode="6" horiz-adv-x="337" 
d="M136 -7q-37 0 -62 25q-40 40 -40 149q0 112 38 268t109 227q45 45 101 45q38 0 75 -24l-4 -23q-36 26 -72 26q-46 0 -82 -36q-75 -75 -117 -270q63 47 117 47q47 0 78 -35t31 -104q0 -64 -23.5 -140t-65.5 -118q-37 -37 -83 -37zM138 13q35 0 66 31q37 37 59 109t22 132
q0 64 -25.5 93t-64.5 29q-51 0 -118 -52l-7 -38q-16 -83 -14 -162q2 -90 34 -122q20 -20 48 -20z" />
    <glyph glyph-name="seven" unicode="7" horiz-adv-x="276" 
d="M11 0l294 680h-204l4 20h227l-5 -21l-293 -679h-23z" />
    <glyph glyph-name="eight" unicode="8" horiz-adv-x="318" 
d="M130 -7q-60 0 -91.5 42.5t-31.5 111.5q0 73 37 140t102 80q-57 40 -57 138q0 74 38 138t106 64q46 0 76.5 -34t30.5 -101q0 -45 -13 -89t-42 -80t-68 -46q67 -47 67 -151q0 -46 -15 -92.5t-51.5 -83.5t-87.5 -37zM132 13q63 0 97 63t34 140q0 55 -26 95.5t-71 40.5
q-61 0 -99.5 -64t-38.5 -140q0 -57 25 -96t79 -39zM195 371q52 0 88.5 62.5t36.5 136.5q0 58 -24.5 87.5t-63.5 30.5q-39 0 -68 -30t-42 -72.5t-13 -87.5q0 -29 7 -56t27.5 -49t51.5 -22z" />
    <glyph glyph-name="nine" unicode="9" horiz-adv-x="329" 
d="M85 -7q-40 0 -79 27l4 23q38 -29 76 -29q46 0 82 36q75 75 116 264q-63 -47 -117 -47q-46 0 -77 35.5t-31 106.5q0 66 23.5 142.5t65.5 118.5q37 37 83 37q37 0 62 -25q40 -40 40 -149q0 -112 -38 -268t-109 -227q-45 -45 -101 -45zM171 287q51 0 118 52l8 44
q16 83 14 162q-2 90 -34 122q-20 20 -48 20q-35 0 -66 -31q-37 -37 -59 -109.5t-22 -134.5q0 -66 25 -95.5t64 -29.5z" />
    <glyph glyph-name="colon" unicode=":" horiz-adv-x="96" 
d="M-17 0l10 50h27l-10 -50h-27zM69 443l10 50h28l-10 -50h-28z" />
    <glyph glyph-name="semicolon" unicode=";" horiz-adv-x="89" 
d="M-40 -60l-5 13q17 9 23 17.5t9 29.5h-11l10 50h28l-11 -58q-4 -23 -13.5 -33t-29.5 -19zM62 443l10 50h28l-10 -50h-28z" />
    <glyph glyph-name="less" unicode="&#x3c;" horiz-adv-x="340" 
d="M275 194l-219 151l3 14l277 151l-4 -25l-247 -135l194 -135z" />
    <glyph glyph-name="equal" unicode="=" horiz-adv-x="328" 
d="M36 272l4 21h260l-4 -21h-260zM63 411l4 21h260l-4 -21h-260z" />
    <glyph glyph-name="greater" unicode="&#x3e;" horiz-adv-x="340" 
d="M39 194l4 25l247 135l-194 135l4 21l219 -151l-3 -14z" />
    <glyph glyph-name="question" unicode="?" horiz-adv-x="286" 
d="M95 183l28 173l4 6q77 25 122 76t45 123q0 61 -32 91.5t-79 30.5q-46 0 -90 -27l4 24q38 24 86 24q59 0 96 -38t37 -104q0 -74 -44.5 -129.5t-127.5 -85.5l-39 -164h-10zM53 0l10 50h28l-10 -50h-28z" />
    <glyph glyph-name="at" unicode="@" horiz-adv-x="625" 
d="M259 -133q-106 0 -168 73.5t-62 216.5q0 139 46.5 265t131.5 206t187 80q103 0 157 -72.5t54 -193.5q0 -82 -22 -166.5t-63.5 -143.5t-89.5 -59q-37 0 -54 30.5t-7 77.5q-61 -111 -128 -111q-37 0 -56.5 29t-19.5 81q0 70 26.5 146.5t70.5 129t89 52.5q35 0 54.5 -30
t21.5 -76l25 89l20 -4l-74 -261q-13 -45 -13 -76q0 -58 48 -58q40 0 77 58t57 138t20 151q0 113 -49 182.5t-144 69.5q-98 0 -179.5 -83t-124 -204t-42.5 -244q0 -134 57.5 -205t154.5 -71q80 0 166 51l9 -15q-93 -53 -176 -53zM244 92q40 0 80 49.5t63.5 118t23.5 127.5
q0 38 -15.5 70t-45.5 32q-37 0 -76 -50t-63.5 -122t-24.5 -135q0 -90 58 -90z" />
    <glyph glyph-name="A" unicode="A" horiz-adv-x="385" 
d="M-23 0l290 705h23l17 -705h-22l-5 212h-193l-86 -212h-24zM95 232h185l-9 429z" />
    <glyph glyph-name="B" unicode="B" horiz-adv-x="360" 
d="M5 0l136 700h44q89 0 137 -42.5t48 -112.5q0 -88 -53.5 -136t-121.5 -58q56 -12 87 -51.5t31 -92.5q0 -99 -67.5 -153t-186.5 -54h-54zM31 20h30q111 0 170.5 49t59.5 136q0 59 -39.5 98.5t-117.5 39.5h-41zM97 363h41q101 0 155.5 52t54.5 128q0 63 -42 100t-124 37h-23
z" />
    <glyph glyph-name="C" unicode="C" horiz-adv-x="316" 
d="M173 -7q-61 0 -96.5 56t-35.5 166q0 118 36.5 243.5t106.5 195.5q53 53 113 53q43 0 74 -25l-5 -24q-32 29 -70 29q-50 0 -95 -45q-64 -64 -101 -185.5t-37 -242.5q0 -97 30 -149t82 -52q32 0 67 23l-5 -24q-29 -19 -64 -19z" />
    <glyph glyph-name="D" unicode="D" horiz-adv-x="383" 
d="M5 0l136 700h53q77 0 121 -44q59 -59 59 -188q0 -97 -34.5 -212.5t-103.5 -184.5q-71 -71 -166 -71h-65zM299 641q-39 39 -108 39h-32l-128 -660h39q85 0 151 66q65 65 98 176t33 207q0 119 -53 172z" />
    <glyph glyph-name="E" unicode="E" horiz-adv-x="313" 
d="M5 0l136 700h226l-4 -20h-204l-61 -317h186l-4 -20h-186l-63 -323h206l-4 -20h-228z" />
    <glyph glyph-name="F" unicode="F" horiz-adv-x="288" 
d="M5 0l136 700h217l-4 -20h-195l-63 -327h177l-4 -20h-177l-65 -333h-22z" />
    <glyph glyph-name="G" unicode="G" horiz-adv-x="371" 
d="M198 -7q-69 0 -112.5 62t-43.5 182q0 111 38.5 225.5t106.5 182.5q62 62 135 62q46 0 87 -30l-5 -24q-40 34 -84 34q-62 0 -116 -54q-63 -63 -101.5 -175t-38.5 -219q0 -110 37.5 -168t98.5 -58q37 0 59 16l58 297h-115l4 20h136l-65 -330q-32 -23 -79 -23z" />
    <glyph glyph-name="H" unicode="H" horiz-adv-x="404" 
d="M5 0l136 700h22l-66 -337h249l65 337h22l-136 -700h-22l67 343h-249l-66 -343h-22z" />
    <glyph glyph-name="I" unicode="I" horiz-adv-x="144" 
d="M11 0l136 700h22l-136 -700h-22z" />
    <glyph glyph-name="J" unicode="J" horiz-adv-x="214" 
d="M29 -5q-33 0 -65 18l4 21q32 -18 61 -18q30 0 50 20q19 19 28 65l116 599h22l-113 -583q-14 -72 -40 -98q-24 -24 -63 -24z" />
    <glyph glyph-name="K" unicode="K" horiz-adv-x="332" 
d="M5 0l136 700h22l-82 -421l288 421h26l-225 -324l103 -376h-22l-96 353l-83 -119l-45 -234h-22z" />
    <glyph glyph-name="L" unicode="L" horiz-adv-x="274" 
d="M5 0l136 700h22l-132 -680h185l-4 -20h-207z" />
    <glyph glyph-name="M" unicode="M" horiz-adv-x="458" 
d="M5 0l136 700h23l65 -437l231 437h27l-136 -700h-21l126 648l-235 -437h-4l-65 437l-126 -648h-21z" />
    <glyph glyph-name="N" unicode="N" horiz-adv-x="408" 
d="M5 0l136 700h23l127 -643l125 643h21l-136 -700h-19l-129 653l-127 -653h-21z" />
    <glyph glyph-name="O" unicode="O" horiz-adv-x="396" 
d="M277 707q55 0 86 -50t31 -145q0 -128 -41 -268.5t-107 -206.5q-44 -44 -92 -44q-55 0 -86 50t-31 145q0 128 41 268.5t107 206.5q44 44 92 44zM155 13q38 0 76 38q62 62 101.5 201.5t39.5 259.5q0 84 -25.5 129.5t-70.5 45.5q-38 0 -76 -38q-62 -62 -101.5 -201.5
t-39.5 -259.5q0 -84 25.5 -129.5t70.5 -45.5z" />
    <glyph glyph-name="P" unicode="P" horiz-adv-x="342" 
d="M5 0l136 700h59q79 0 123 -44t44 -125q0 -120 -75 -195q-68 -68 -178 -68h-35l-52 -268h-22zM307 642q-38 38 -109 38h-39l-76 -392h30q102 0 163 61q69 69 69 181q0 74 -38 112z" />
    <glyph glyph-name="Q" unicode="Q" horiz-adv-x="406" 
d="M277 707q55 0 86 -50t31 -145q0 -117 -35.5 -248t-94.5 -206l41 -64l-15 -12l-38 61l-8 -8q-42 -42 -90 -42q-55 0 -86 50t-31 145q0 128 41 268.5t107 206.5q44 44 92 44zM155 13q38 0 78 40l8 8l-63 101l15 12l60 -98q53 71 86 199t33 237q0 84 -25.5 129.5t-70.5 45.5
q-38 0 -76 -38q-62 -62 -101.5 -201.5t-39.5 -259.5q0 -84 25.5 -129.5t70.5 -45.5z" />
    <glyph glyph-name="R" unicode="R" horiz-adv-x="365" 
d="M265 0l-87 297q-30 -5 -61 -5h-34l-56 -292h-22l136 700h55q90 0 137 -47q42 -42 42 -120q0 -105 -65 -170q-47 -47 -112 -62l89 -301h-22zM87 312h33q111 0 172 61t61 159q0 70 -37 107q-41 41 -122 41h-35z" />
    <glyph glyph-name="S" unicode="S" horiz-adv-x="312" 
d="M117 -7q-77 0 -133 66l9 23q55 -69 124 -69q55 0 87.5 40t32.5 101q0 33 -12 71.5t-24 63.5t-37 72q-25 46 -37 71.5t-23 62t-11 68.5q0 67 39 106q38 38 95 38q61 0 116 -52l-8 -23q-50 54 -108 55q-50 1 -81 -33.5t-31 -88.5q0 -31 10.5 -65.5t21.5 -57t37 -71.5
q38 -70 56.5 -119t18.5 -96q0 -79 -45 -124q-39 -39 -97 -39z" />
    <glyph glyph-name="T" unicode="T" horiz-adv-x="274" 
d="M75 0l133 680h-119l4 20h260l-4 -20h-119l-133 -680h-22z" />
    <glyph glyph-name="U" unicode="U" horiz-adv-x="395" 
d="M158 -7q-55 0 -91 34t-36 94q0 30 13 98l93 481h22l-93 -482q-13 -68 -13 -96q0 -52 30.5 -80.5t78.5 -28.5q52 0 89 37q38 38 54 123l101 527h22l-103 -533q-17 -89 -59 -131q-43 -43 -108 -43z" />
    <glyph glyph-name="V" unicode="V" horiz-adv-x="377" 
d="M126 -5l-14 705h22l11 -661l267 661h24l-289 -705h-21z" />
    <glyph glyph-name="W" unicode="W" horiz-adv-x="596" 
d="M100 -5l15 705h22l-17 -652l252 652h19l-1 -653l236 653h25l-259 -705h-21v647l-250 -647h-21z" />
    <glyph glyph-name="X" unicode="X" horiz-adv-x="337" 
d="M-31 0l205 356l-63 344h23l57 -321l183 321h25l-200 -345l67 -355h-23l-60 333l-189 -333h-25z" />
    <glyph glyph-name="Y" unicode="Y" horiz-adv-x="330" 
d="M103 0l59 302l-68 398h23l61 -367l205 367h25l-224 -398l-59 -302h-22z" />
    <glyph glyph-name="Z" unicode="Z" horiz-adv-x="308" 
d="M-23 0l4 19l353 661h-222l4 20h247l-4 -19l-353 -661h232l-4 -20h-257z" />
    <glyph glyph-name="bracketleft" unicode="[" horiz-adv-x="232" 
d="M3 -130l160 830h118l-3 -17h-97l-155 -796h97l-3 -17h-117z" />
    <glyph glyph-name="backslash" unicode="\" horiz-adv-x="242" 
d="M156 -98l-49 866h19l49 -866h-19z" />
    <glyph glyph-name="bracketright" unicode="]" horiz-adv-x="232" 
d="M238 700l-160 -830h-118l3 17h97l155 796h-97l3 17h117z" />
    <glyph glyph-name="asciicircum" unicode="^" horiz-adv-x="300" 
d="M127 533l97 153h15l38 -153h-14l-35 129l-85 -129h-16z" />
    <glyph glyph-name="underscore" unicode="_" horiz-adv-x="442" 
d="M-82 -148l3 15h445l-3 -15h-445z" />
    <glyph glyph-name="grave" unicode="`" 
d="M350 576l-76 107l21 11l66 -118h-11z" />
    <glyph glyph-name="a" unicode="a" horiz-adv-x="330" 
d="M100 -7q-45 0 -71.5 31t-26.5 88q0 110 59 169q40 40 98 40q53 0 106 -32l8 40q11 62 11 91q0 40 -23.5 63t-67.5 23q-43 0 -92 -23l4 23q44 20 91 20q51 0 81 -29t30 -79q0 -28 -11 -85l-65 -333h-22l17 88q-22 -41 -54.5 -68t-71.5 -27zM102 13q46 0 87.5 50t54.5 116
l17 88q-45 34 -103 34q-48 0 -81 -33q-53 -53 -53 -157q0 -45 20.5 -71.5t57.5 -26.5z" />
    <glyph glyph-name="b" unicode="b" horiz-adv-x="366" 
d="M145 -7q-51 0 -73.5 44t-22.5 96l-26 -133h-21l137 707h21l-60 -311q59 132 141 132q49 0 75.5 -45.5t26.5 -122.5q0 -90 -31.5 -183t-81.5 -143q-41 -41 -85 -41zM144 13q36 0 71 35q46 46 76 136.5t30 176.5q0 66 -21.5 106.5t-61.5 40.5q-34 0 -67 -33
q-48 -48 -78.5 -136t-30.5 -180q0 -58 19.5 -102t62.5 -44z" />
    <glyph glyph-name="c" unicode="c" horiz-adv-x="273" 
d="M140 -7q-54 0 -86.5 48t-32.5 134q0 85 29.5 173t77.5 136q44 44 97 44q39 0 69 -25l-5 -24q-30 28 -66 28q-42 0 -78 -36q-46 -46 -73.5 -130.5t-27.5 -166.5q0 -78 27 -119t71 -41q30 0 60 19l-4 -24q-28 -16 -58 -16z" />
    <glyph glyph-name="d" unicode="d" horiz-adv-x="366" 
d="M241 0l24 125q-59 -132 -141 -132q-49 0 -75.5 45.5t-26.5 122.5q0 90 31.5 183t81.5 143q41 41 85 41q51 0 73.5 -44t22.5 -96l63 319h21l-138 -707h-21zM127 13q34 0 67 33q48 48 78.5 136t30.5 180q0 58 -19.5 102t-62.5 44q-36 0 -71 -35q-46 -46 -76 -136.5
t-30 -176.5q0 -66 21.5 -106.5t61.5 -40.5z" />
    <glyph glyph-name="e" unicode="e" horiz-adv-x="333" 
d="M301 253h-249q-8 -44 -6 -86q2 -74 33 -114t81 -40q46 0 87 26l-1 -22q-39 -24 -87 -24q-59 0 -95 44t-39 130q-3 89 27.5 178.5t80.5 139.5q43 43 88 43t69.5 -40t24.5 -115q0 -55 -14 -120zM149 473q-67 -68 -94 -200h228q10 49 10 99q0 136 -73 136q-36 0 -71 -35z
" />
    <glyph glyph-name="f" unicode="f" horiz-adv-x="191" 
d="M22 0l97 502h-54l4 19h54l14 71q14 75 43 99q21 17 50 17q24 0 43 -8l-4 -20q-19 8 -40 8q-25 0 -41.5 -17t-25.5 -62l-17 -88h88l-4 -19h-88l-97 -502h-22z" />
    <glyph glyph-name="g" unicode="g" horiz-adv-x="363" 
d="M99 -131q-66 0 -115 26l4 22q48 -28 109 -28q68 0 101 33q32 32 48 116l19 102q-67 -118 -136 -117q-48 1 -74.5 45.5t-26.5 114.5q0 86 31.5 173t75.5 131q41 41 84 41q35 0 58 -25t30 -49.5t9 -50.5l23 118h21l-91 -471q-11 -58 -23 -91.5t-39 -56.5q-38 -33 -108 -33z
M132 43q33 0 66 33q49 49 75.5 130.5t26.5 155.5q0 59 -19 102.5t-61 43.5q-35 0 -70 -35q-40 -40 -70 -124t-30 -167q0 -61 21.5 -100t60.5 -39z" />
    <glyph glyph-name="h" unicode="h" horiz-adv-x="360" 
d="M2 0l137 707h21l-54 -277q19 41 54.5 69.5t80.5 28.5q38 0 66.5 -25t28.5 -81q0 -35 -17 -120l-59 -302h-21l59 300q17 87 17 119q0 47 -22 68t-56 21q-53 0 -93 -45.5t-55 -121.5l-66 -341h-21z" />
    <glyph glyph-name="i" unicode="i" horiz-adv-x="135" 
d="M7 0l100 521h21l-100 -521h-21zM130 650l11 57h25l-11 -57h-25z" />
    <glyph glyph-name="j" unicode="j" horiz-adv-x="135" 
d="M-59 -133q-23 0 -40 10l4 20q18 -10 37 -10q20 0 33 13t20 48l112 573h21l-113 -578q-14 -76 -74 -76zM130 650l11 57h25l-11 -57h-25z" />
    <glyph glyph-name="k" unicode="k" horiz-adv-x="290" 
d="M3 0l136 707h21l-100 -520l238 334h25l-158 -218l67 -303h-21l-62 281l-97 -134l-28 -147h-21z" />
    <glyph glyph-name="l" unicode="l" horiz-adv-x="135" 
d="M7 0l136 707h21l-137 -707h-20z" />
    <glyph glyph-name="m" unicode="m" horiz-adv-x="584" 
d="M2 0l101 521h21l-17 -88q19 40 52 67.5t77 27.5q36 0 64.5 -25t28.5 -81q20 48 56.5 77t80.5 29q36 0 64.5 -25t28.5 -81q0 -35 -17 -120l-59 -302h-21l59 300q17 87 17 119q0 47 -21.5 68t-54.5 21q-49 0 -88 -44.5t-54 -119.5l-67 -344h-21l60 303q16 82 16 116
q0 47 -22 68t-55 21q-50 0 -88.5 -45.5t-52.5 -118.5l-67 -344h-21z" />
    <glyph glyph-name="n" unicode="n" horiz-adv-x="360" 
d="M2 0l101 521h21l-18 -91q19 41 54.5 69.5t80.5 28.5q38 0 66.5 -25t28.5 -81q0 -35 -17 -120l-59 -302h-21l59 300q17 87 17 119q0 47 -22 68t-56 21q-53 0 -93 -45.5t-55 -121.5l-66 -341h-21z" />
    <glyph glyph-name="o" unicode="o" horiz-adv-x="356" 
d="M224 528q50 0 79 -45t29 -125q0 -92 -30 -182t-80 -140q-43 -43 -90 -43q-50 0 -79 45t-29 125q0 92 30 182t80 140q43 43 90 43zM133 13q37 0 73 36q45 45 74.5 132.5t29.5 175.5q0 69 -23 110t-64 41q-37 0 -73 -36q-45 -45 -74.5 -132.5t-29.5 -175.5q0 -69 23 -110
t64 -41z" />
    <glyph glyph-name="p" unicode="p" horiz-adv-x="367" 
d="M145 -7q-51 0 -73.5 44t-22.5 96l-51 -263h-21l126 651h21l-24 -125q59 132 141 132q49 0 75.5 -45.5t26.5 -122.5q0 -90 -31.5 -183t-81.5 -143q-41 -41 -85 -41zM144 13q36 0 71 35q46 46 76 136.5t30 176.5q0 66 -21.5 106.5t-61.5 40.5q-34 0 -67 -33
q-48 -48 -78.5 -136t-30.5 -180q0 -58 19.5 -102t62.5 -44z" />
    <glyph glyph-name="q" unicode="q" horiz-adv-x="366" 
d="M124 -7q-49 0 -75.5 45.5t-26.5 122.5q0 90 31.5 183t81.5 143q41 41 85 41q51 0 73.5 -44t22.5 -96l26 133h21l-126 -651h-21l49 255q-59 -132 -141 -132zM127 13q34 0 67 33q48 48 78.5 136t30.5 180q0 58 -19.5 102t-62.5 44q-36 0 -71 -35q-46 -46 -76 -136.5
t-30 -176.5q0 -66 21.5 -106.5t61.5 -40.5z" />
    <glyph glyph-name="r" unicode="r" horiz-adv-x="201" 
d="M2 0l101 521h21l-17 -90q22 44 57 70t80 25l-4 -22h-2q-50 0 -91.5 -41t-55.5 -113l-68 -350h-21z" />
    <glyph glyph-name="s" unicode="s" horiz-adv-x="266" 
d="M97 -5q-67 0 -114 53l5 23q48 -56 108 -56q44 0 69.5 29t25.5 72q0 59 -60 142q-71 99 -71 155q0 52 32.5 83t78.5 31q51 0 95 -36l-5 -23q-43 39 -90 39q-42 0 -65.5 -26.5t-23.5 -65.5q0 -50 66 -144q65 -93 65 -154q0 -54 -33.5 -88t-82.5 -34z" />
    <glyph glyph-name="t" unicode="t" horiz-adv-x="201" 
d="M91 -4q-26 0 -43 16t-17 46q0 14 7 51l76 393h-50l4 19h50l29 152h22l-29 -152h88l-4 -19h-88l-76 -390q-7 -37 -7 -51q0 -45 41 -45q21 0 41 9l-4 -20q-14 -9 -40 -9z" />
    <glyph glyph-name="u" unicode="u" horiz-adv-x="360" 
d="M119 -7q-38 0 -66.5 25t-28.5 81q0 35 17 120l59 302h21l-59 -300q-17 -87 -17 -119q0 -47 22 -68t56 -21q52 0 92 45t55 122l67 341h21l-101 -521h-21l17 91q-19 -42 -54 -70t-80 -28z" />
    <glyph glyph-name="v" unicode="v" horiz-adv-x="323" 
d="M101 -3l-31 524h20l28 -484l212 484h23l-233 -524h-19z" />
    <glyph glyph-name="w" unicode="w" horiz-adv-x="492" 
d="M79 -3l-7 524h20l4 -476l191 476h16l8 -476l186 476h23l-209 -524h-17l-10 465l-187 -465h-18z" />
    <glyph glyph-name="x" unicode="x" horiz-adv-x="304" 
d="M96 521l59 -232l149 232h24l-165 -254l69 -267h-21l-63 247l-157 -247h-24l174 269l-66 252h21z" />
    <glyph glyph-name="y" unicode="y" horiz-adv-x="323" 
d="M103 14l-32 507h20l28 -472l213 472h22l-295 -651h-22z" />
    <glyph glyph-name="z" unicode="z" horiz-adv-x="270" 
d="M-23 0l2 14l284 488h-188l4 19h213l-2 -14l-285 -488h198l-4 -19h-222z" />
    <glyph glyph-name="braceleft" unicode="{" horiz-adv-x="245" 
d="M146 -135q-101 26 -101 109q0 42 43 122q38 71 38 113q0 31 -23.5 51t-62.5 20h-7l3 18h5q60 0 95 35q29 29 35.5 67t-2.5 98q-10 53 -5 102.5t33 77.5q37 37 114 37l-3 -17q-63 0 -95 -32q-38 -38 -26 -134q12 -66 7 -118.5t-38 -85.5q-30 -30 -80 -40q71 -23 71 -84
q0 -38 -36 -108q-3 -5 -10 -19l-9.5 -19t-8 -16.5t-7.5 -18t-5 -15.5t-4 -17.5t-1 -16.5q0 -68 83 -93z" />
    <glyph glyph-name="bar" unicode="|" horiz-adv-x="199" 
d="M20 -98l169 866h19l-169 -866h-19z" />
    <glyph glyph-name="braceright" unicode="}" horiz-adv-x="245" 
d="M117 715q101 -26 101 -109q0 -42 -43 -122q-38 -71 -38 -113q0 -31 23.5 -51t62.5 -20h7l-3 -18h-5q-60 0 -95 -35q-29 -29 -35.5 -67t2.5 -98q10 -53 5 -102.5t-33 -77.5q-37 -37 -114 -37l3 17q63 0 95 32q38 38 26 134q-12 66 -7 118.5t38 85.5q30 30 80 40
q-71 23 -71 84q0 38 36 108q3 5 10 19l9.5 19t8 16.5t7.5 18t5 15.5t4 17.5t1 16.5q0 68 -83 93z" />
    <glyph glyph-name="asciitilde" unicode="~" horiz-adv-x="294" 
d="M74 261l-14 4q12 30 25 46t31 16q19 0 42 -26q2 -2 5 -5.5t4 -4.5l3.5 -3.5t4 -3.5t3.5 -2.5t3 -2l3 -1.5t4 -1h4q21 0 41 49l14 -4q-12 -30 -25 -46t-31 -16q-19 0 -42 26q-2 2 -5 5.5t-4 4.5l-3.5 3.5t-4 3.5t-3.5 2.5t-3 2l-3 1.5t-4 1h-4q-21 0 -41 -49z" />
    <glyph glyph-name="uni00A0" unicode="&#xa0;" horiz-adv-x="158" 
 />
    <glyph glyph-name="exclamdown" unicode="&#xa1;" horiz-adv-x="132" 
d="M121 517l-81 -447l-14 -70h-22l14 70l93 447h10zM165 700l-10 -50h-27l10 50h27z" />
    <glyph glyph-name="cent" unicode="&#xa2;" horiz-adv-x="272" 
d="M242 703h19l-16 -85q34 -2 60 -24l-5 -22q-26 24 -59 27l-97 -499h10q30 0 59 19l-4 -22q-28 -16 -57 -16h-11l-17 -86h-19l17 90q-79 21 -79 170q0 89 28.5 183t78.5 144q34 34 76 37zM65 255q0 -132 61 -151l96 495q-31 -3 -56 -28q-45 -45 -73 -138t-28 -178z" />
    <glyph glyph-name="sterling" unicode="&#xa3;" horiz-adv-x="301" 
d="M-18 0l2 11l51 9l61 315h-54l4 19h54l38 200q16 85 50 119t84 34q42 0 78 -20l-4 -21q-34 21 -74 21q-41 0 -68 -27q-29 -29 -42 -97l-40 -209h136l-4 -19h-136l-61 -315h185l-4 -20h-256z" />
    <glyph glyph-name="yen" unicode="&#xa5;" horiz-adv-x="336" 
d="M107 0l29 150h-103l3 18h104l22 116h-103l3 18h104l-68 398h22l61 -371l205 371h24l-224 -398h102l-3 -18h-103l-22 -116h102l-3 -18h-103l-29 -150h-20z" />
    <glyph glyph-name="section" unicode="&#xa7;" horiz-adv-x="340" 
d="M330 337q0 -52 -36.5 -81.5t-102.5 -53.5q42 -46 42 -96q0 -49 -32 -81t-83 -32q-48 0 -87 27l4 22q37 -31 82 -31q42 0 68 26.5t26 68.5q0 27 -14.5 54t-57.5 63q-56 47 -75.5 78.5t-19.5 61.5q0 52 36.5 81.5t102.5 53.5q-42 46 -42 96q0 49 32 81t83 32q48 0 87 -27
l-4 -22q-37 31 -82 31q-42 0 -68 -26.5t-26 -68.5q0 -27 14.5 -54t57.5 -63q56 -47 75.5 -78.5t19.5 -61.5zM66 365q0 -27 14.5 -50.5t53.5 -59.5l44 -38q75 29 100 53q30 27 30 65q0 27 -14.5 50.5t-53.5 59.5l-44 38q-75 -29 -100 -53q-30 -28 -30 -65z" />
    <glyph glyph-name="dieresis" unicode="&#xa8;" 
d="M261 586l7 37h26l-7 -37h-26zM339 586l7 37h26l-7 -37h-26z" />
    <glyph glyph-name="copyright" unicode="&#xa9;" horiz-adv-x="513" 
d="M251 152q-72 0 -72 122q0 64 22 136.5t59 109.5q28 28 60 28q26 0 48 -20l-4 -20q-22 22 -45 22t-45 -22q-33 -33 -54 -101.5t-21 -132.5q0 -104 56 -104q21 0 48 19l-3 -20q-23 -17 -49 -17zM521 450q0 -105 -34.5 -213.5t-100.5 -174.5q-72 -72 -158 -72
q-99 0 -149.5 72.5t-50.5 188.5q0 105 34.5 213.5t100.5 174.5q72 72 158 72q99 0 149.5 -72.5t50.5 -188.5zM45 247q0 -102 46 -171.5t138 -69.5q77 0 142 65q66 66 99.5 175.5t33.5 207.5q0 102 -46 171.5t-138 69.5q-77 0 -142 -65q-66 -66 -99.5 -175.5t-33.5 -207.5z
" />
    <glyph glyph-name="ordfeminine" unicode="&#xaa;" horiz-adv-x="218" 
d="M131 403q-50 0 -50 69q0 43 21 77t59 34q29 0 55 -18l5 25q5 25 5 47q0 46 -46 46q-22 0 -46 -11l2 17q20 11 46 11q29 0 45 -16t16 -46q0 -18 -5 -46l-35 -184h-17l7 40q-26 -45 -62 -45zM134 418q23 0 43 25.5t27 60.5l9 46q-25 19 -51 19q-31 0 -47.5 -30.5
t-16.5 -66.5q0 -54 36 -54zM52 336l3 14h145l-3 -14h-145z" />
    <glyph glyph-name="guillemotleft" unicode="&#xab;" horiz-adv-x="301" 
d="M89 46l-73 207l1 4l153 208l15 -12l-147 -201l69 -199zM209 46l-73 207l1 4l153 208l15 -12l-147 -201l69 -199z" />
    <glyph glyph-name="registered" unicode="&#xae;" horiz-adv-x="303" 
d="M230 717q51 0 77.5 -36t26.5 -93q0 -53 -18.5 -107.5t-53.5 -89.5q-36 -36 -82 -36q-51 0 -77.5 36t-26.5 93q0 53 18.5 107.5t53.5 89.5q36 36 82 36zM181 365q41 0 73 32q35 35 52.5 89t17.5 103t-23.5 83.5t-71.5 34.5q-41 0 -73 -32q-35 -35 -52.5 -89t-17.5 -103
t23.5 -83.5t71.5 -34.5zM177 521l-15 -77h-11l37 191h20q55 0 55 -50q0 -47 -44 -61l19 -80h-11l-19 78q-11 -1 -31 -1zM179 531h10q33 0 49 16q14 14 14 37q0 41 -46 41h-9z" />
    <glyph glyph-name="macron" unicode="&#xaf;" 
d="M234 588l4 18h160l-4 -18h-160z" />
    <glyph glyph-name="degree" unicode="&#xb0;" horiz-adv-x="230" 
d="M196 708q33 0 53.5 -26.5t20.5 -78.5q0 -49 -15.5 -97t-44.5 -77q-27 -27 -60 -27t-53.5 26.5t-20.5 78.5q0 49 15.5 97t44.5 77q27 27 60 27zM151 420q25 0 46 21q24 24 39 70t15 91q0 88 -56 88q-25 0 -46 -21q-24 -24 -39 -70t-15 -91q0 -88 56 -88z" />
    <glyph glyph-name="plusminus" unicode="&#xb1;" horiz-adv-x="328" 
d="M144 207l26 135h-125l4 20h125l26 135h20l-26 -135h125l-4 -20h-125l-26 -135h-20zM1 108l3 19h269l-3 -19h-269z" />
    <glyph glyph-name="acute" unicode="&#xb4;" 
d="M261 576l90 118l22 -12l-100 -106h-12z" />
    <glyph glyph-name="paragraph" unicode="&#xb6;" horiz-adv-x="303" 
d="M174 0l51 258q-76 0 -123 47q-45 45 -45 127q0 124 74 198q70 70 175 70h27l-137 -700h-22z" />
    <glyph glyph-name="periodcentered" unicode="&#xb7;" horiz-adv-x="92" 
d="M31 255l10 50h28l-10 -50h-28z" />
    <glyph glyph-name="cedilla" unicode="&#xb8;" 
d="M150 -105l-21 10l79 105h12z" />
    <glyph glyph-name="ordmasculine" unicode="&#xba;" horiz-adv-x="224" 
d="M53 336l3 14h149l-3 -14h-149zM104 501q0 -82 45 -82q18 0 33 15q25 25 39 72.5t14 98.5q0 82 -45 82q-18 0 -33 -15q-25 -25 -39 -72.5t-14 -98.5zM253 604q0 -52 -15 -102t-42 -77q-22 -22 -48 -22q-28 0 -45 25.5t-17 73.5q0 52 15 102t42 77q22 22 48 22
q28 0 45 -25.5t17 -73.5z" />
    <glyph glyph-name="guillemotright" unicode="&#xbb;" horiz-adv-x="301" 
d="M209 465l73 -207l-1 -4l-153 -208l-15 12l147 201l-69 199zM89 465l73 -207l-1 -4l-153 -208l-15 12l147 201l-69 199z" />
    <glyph glyph-name="questiondown" unicode="&#xbf;" horiz-adv-x="286" 
d="M225 517l-28 -173l-4 -6q-77 -25 -122 -76t-45 -123q0 -61 32 -91.5t79 -30.5q46 0 90 27l-4 -24q-38 -24 -86 -24q-59 0 -96 38t-37 104q0 74 44.5 129.5t127.5 85.5l39 164h10zM267 700l-10 -50h-28l10 50h28z" />
    <glyph glyph-name="Agrave" unicode="&#xc0;" horiz-adv-x="385" 
d="M-23 0l290 705h23l17 -705h-22l-5 212h-193l-86 -212h-24zM95 232h185l-9 429zM273 745l-67 88l21 11l57 -99h-11z" />
    <glyph glyph-name="Aacute" unicode="&#xc1;" horiz-adv-x="385" 
d="M-23 0l290 705h23l17 -705h-22l-5 212h-193l-86 -212h-24zM95 232h185l-9 429zM274 745l81 99l22 -12l-91 -87h-12z" />
    <glyph glyph-name="Acircumflex" unicode="&#xc2;" horiz-adv-x="385" 
d="M-23 0l290 705h23l17 -705h-22l-5 212h-193l-86 -212h-24zM95 232h185l-9 429zM205 750l88 97h15l50 -97h-14l-48 74l-75 -74h-16z" />
    <glyph glyph-name="Atilde" unicode="&#xc3;" horiz-adv-x="385" 
d="M-23 0l290 705h23l17 -705h-22l-5 212h-193l-86 -212h-24zM95 232h185l-9 429zM206 754l-16 4q26 58 58 58q18 0 46 -23q27 -21 37 -21q20 0 41 44l16 -4q-26 -58 -58 -58q-18 0 -46 23q-27 21 -37 21q-20 0 -41 -44z" />
    <glyph glyph-name="Adieresis" unicode="&#xc4;" horiz-adv-x="385" 
d="M-23 0l290 705h23l17 -705h-22l-5 212h-193l-86 -212h-24zM95 232h185l-9 429zM232 755l7 37h26l-7 -37h-26zM310 755l7 37h26l-7 -37h-26z" />
    <glyph glyph-name="Aring" unicode="&#xc5;" horiz-adv-x="385" 
d="M-23 0l278 675q-41 14 -41 59q0 31 22 52t54 21q29 0 47.5 -18t18.5 -45q0 -28 -19 -48.5t-47 -24.5l17 -671h-22l-5 212h-193l-86 -212h-24zM95 232h185l-9 429zM281 685q26 0 43 17t17 41q0 22 -14.5 36t-37.5 14q-26 0 -43 -17t-17 -41q0 -22 14.5 -36t37.5 -14z" />
    <glyph glyph-name="AE" unicode="&#xc6;" horiz-adv-x="491" 
d="M-48 0l340 700h253l-4 -20h-204l-61 -317h186l-4 -20h-186l-63 -323h206l-4 -20h-228l41 212h-146l-102 -212h-24zM88 232h140l87 447h-12z" />
    <glyph glyph-name="Ccedilla" unicode="&#xc7;" horiz-adv-x="316" 
d="M86 -105l-21 10l70 94q-94 32 -94 216q0 118 36.5 243.5t106.5 195.5q53 53 113 53q43 0 74 -25l-5 -24q-32 29 -70 29q-50 0 -95 -45q-64 -64 -101 -185.5t-37 -242.5q0 -97 30 -149t82 -52q32 0 67 23l-5 -24q-29 -19 -64 -19q-14 0 -26 3z" />
    <glyph glyph-name="Egrave" unicode="&#xc8;" horiz-adv-x="313" 
d="M5 0l136 700h226l-4 -20h-204l-61 -317h186l-4 -20h-186l-63 -323h206l-4 -20h-228zM246 740l-67 88l21 11l57 -99h-11z" />
    <glyph glyph-name="Eacute" unicode="&#xc9;" horiz-adv-x="313" 
d="M5 0l136 700h226l-4 -20h-204l-61 -317h186l-4 -20h-186l-63 -323h206l-4 -20h-228zM247 740l81 99l22 -12l-91 -87h-12z" />
    <glyph glyph-name="Ecircumflex" unicode="&#xca;" horiz-adv-x="313" 
d="M5 0l136 700h226l-4 -20h-204l-61 -317h186l-4 -20h-186l-63 -323h206l-4 -20h-228zM178 745l88 97h15l50 -97h-14l-48 74l-75 -74h-16z" />
    <glyph glyph-name="Edieresis" unicode="&#xcb;" horiz-adv-x="313" 
d="M5 0l136 700h226l-4 -20h-204l-61 -317h186l-4 -20h-186l-63 -323h206l-4 -20h-228zM205 750l7 37h26l-7 -37h-26zM283 750l7 37h26l-7 -37h-26z" />
    <glyph glyph-name="Igrave" unicode="&#xcc;" horiz-adv-x="144" 
d="M11 0l136 700h22l-136 -700h-22zM157 740l-67 88l21 11l57 -99h-11z" />
    <glyph glyph-name="Iacute" unicode="&#xcd;" horiz-adv-x="144" 
d="M11 0l136 700h22l-136 -700h-22zM158 740l81 99l22 -12l-91 -87h-12z" />
    <glyph glyph-name="Icircumflex" unicode="&#xce;" horiz-adv-x="144" 
d="M11 0l136 700h22l-136 -700h-22zM89 745l88 97h15l50 -97h-14l-48 74l-75 -74h-16z" />
    <glyph glyph-name="Idieresis" unicode="&#xcf;" horiz-adv-x="144" 
d="M11 0l136 700h22l-136 -700h-22zM116 750l7 37h26l-7 -37h-26zM194 750l7 37h26l-7 -37h-26z" />
    <glyph glyph-name="Eth" unicode="&#xd0;" horiz-adv-x="390" 
d="M34 343l4 19h44l66 338h53q77 0 121 -44q59 -59 59 -188q0 -97 -34.5 -212.5t-103.5 -184.5q-71 -71 -166 -71h-65l66 343h-44zM306 641q-39 39 -108 39h-32l-62 -318h105l-4 -19h-105l-62 -323h39q85 0 151 66q65 65 98 176t33 207q0 119 -53 172z" />
    <glyph glyph-name="Ntilde" unicode="&#xd1;" horiz-adv-x="408" 
d="M5 0l136 700h23l127 -643l125 643h21l-136 -700h-19l-129 653l-127 -653h-21zM214 744l-16 4q26 58 58 58q18 0 46 -23q27 -21 37 -21q20 0 41 44l16 -4q-26 -58 -58 -58q-18 0 -46 23q-27 21 -37 21q-20 0 -41 -44z" />
    <glyph glyph-name="Ograve" unicode="&#xd2;" horiz-adv-x="396" 
d="M277 707q55 0 86 -50t31 -145q0 -128 -41 -268.5t-107 -206.5q-44 -44 -92 -44q-55 0 -86 50t-31 145q0 128 41 268.5t107 206.5q44 44 92 44zM155 13q38 0 76 38q62 62 101.5 201.5t39.5 259.5q0 84 -25.5 129.5t-70.5 45.5q-38 0 -76 -38q-62 -62 -101.5 -201.5
t-39.5 -259.5q0 -84 25.5 -129.5t70.5 -45.5zM283 745l-67 88l21 11l57 -99h-11z" />
    <glyph glyph-name="Oacute" unicode="&#xd3;" horiz-adv-x="396" 
d="M277 707q55 0 86 -50t31 -145q0 -128 -41 -268.5t-107 -206.5q-44 -44 -92 -44q-55 0 -86 50t-31 145q0 128 41 268.5t107 206.5q44 44 92 44zM155 13q38 0 76 38q62 62 101.5 201.5t39.5 259.5q0 84 -25.5 129.5t-70.5 45.5q-38 0 -76 -38q-62 -62 -101.5 -201.5
t-39.5 -259.5q0 -84 25.5 -129.5t70.5 -45.5zM284 745l81 99l22 -12l-91 -87h-12z" />
    <glyph glyph-name="Ocircumflex" unicode="&#xd4;" horiz-adv-x="396" 
d="M277 707q55 0 86 -50t31 -145q0 -128 -41 -268.5t-107 -206.5q-44 -44 -92 -44q-55 0 -86 50t-31 145q0 128 41 268.5t107 206.5q44 44 92 44zM155 13q38 0 76 38q62 62 101.5 201.5t39.5 259.5q0 84 -25.5 129.5t-70.5 45.5q-38 0 -76 -38q-62 -62 -101.5 -201.5
t-39.5 -259.5q0 -84 25.5 -129.5t70.5 -45.5zM215 750l88 97h15l50 -97h-14l-48 74l-75 -74h-16z" />
    <glyph glyph-name="Otilde" unicode="&#xd5;" horiz-adv-x="396" 
d="M277 707q55 0 86 -50t31 -145q0 -128 -41 -268.5t-107 -206.5q-44 -44 -92 -44q-55 0 -86 50t-31 145q0 128 41 268.5t107 206.5q44 44 92 44zM155 13q38 0 76 38q62 62 101.5 201.5t39.5 259.5q0 84 -25.5 129.5t-70.5 45.5q-38 0 -76 -38q-62 -62 -101.5 -201.5
t-39.5 -259.5q0 -84 25.5 -129.5t70.5 -45.5zM217 754l-16 4q26 58 58 58q18 0 46 -23q27 -21 37 -21q20 0 41 44l16 -4q-26 -58 -58 -58q-18 0 -46 23q-27 21 -37 21q-20 0 -41 -44z" />
    <glyph glyph-name="Odieresis" unicode="&#xd6;" horiz-adv-x="396" 
d="M277 707q55 0 86 -50t31 -145q0 -128 -41 -268.5t-107 -206.5q-44 -44 -92 -44q-55 0 -86 50t-31 145q0 128 41 268.5t107 206.5q44 44 92 44zM155 13q38 0 76 38q62 62 101.5 201.5t39.5 259.5q0 84 -25.5 129.5t-70.5 45.5q-38 0 -76 -38q-62 -62 -101.5 -201.5
t-39.5 -259.5q0 -84 25.5 -129.5t70.5 -45.5zM242 755l7 37h26l-7 -37h-26zM320 755l7 37h26l-7 -37h-26z" />
    <glyph glyph-name="multiply" unicode="&#xd7;" horiz-adv-x="325" 
d="M57 228l-13 15l119 110l-76 109l16 12l75 -108l118 109l13 -15l-120 -110l77 -109l-16 -12l-75 107z" />
    <glyph glyph-name="Oslash" unicode="&#xd8;" horiz-adv-x="396" 
d="M280 707q66 0 95 -75l45 76h20l-58 -97q12 -42 12 -99q0 -127 -41.5 -267.5t-108.5 -207.5q-44 -44 -93 -44q-66 0 -95 74l-45 -75h-20l57 97q-11 42 -11 99q0 127 41.5 267.5t108.5 207.5q44 44 93 44zM59 188q0 -40 6 -72l295 490q-23 81 -81 81q-40 0 -76 -36
q-63 -63 -103.5 -203t-40.5 -260zM152 13q40 0 76 36q63 63 103.5 203t40.5 260q0 40 -6 71l-296 -490q23 -80 82 -80z" />
    <glyph glyph-name="Ugrave" unicode="&#xd9;" horiz-adv-x="395" 
d="M158 -7q-55 0 -91 34t-36 94q0 30 13 98l93 481h22l-93 -482q-13 -68 -13 -96q0 -52 30.5 -80.5t78.5 -28.5q52 0 89 37q38 38 54 123l101 527h22l-103 -533q-17 -89 -59 -131q-43 -43 -108 -43zM277 735l-67 88l21 11l57 -99h-11z" />
    <glyph glyph-name="Uacute" unicode="&#xda;" horiz-adv-x="395" 
d="M158 -7q-55 0 -91 34t-36 94q0 30 13 98l93 481h22l-93 -482q-13 -68 -13 -96q0 -52 30.5 -80.5t78.5 -28.5q52 0 89 37q38 38 54 123l101 527h22l-103 -533q-17 -89 -59 -131q-43 -43 -108 -43zM278 735l81 99l22 -12l-91 -87h-12z" />
    <glyph glyph-name="Ucircumflex" unicode="&#xdb;" horiz-adv-x="395" 
d="M158 -7q-55 0 -91 34t-36 94q0 30 13 98l93 481h22l-93 -482q-13 -68 -13 -96q0 -52 30.5 -80.5t78.5 -28.5q52 0 89 37q38 38 54 123l101 527h22l-103 -533q-17 -89 -59 -131q-43 -43 -108 -43zM209 740l88 97h15l50 -97h-14l-48 74l-75 -74h-16z" />
    <glyph glyph-name="Udieresis" unicode="&#xdc;" horiz-adv-x="395" 
d="M158 -7q-55 0 -91 34t-36 94q0 30 13 98l93 481h22l-93 -482q-13 -68 -13 -96q0 -52 30.5 -80.5t78.5 -28.5q52 0 89 37q38 38 54 123l101 527h22l-103 -533q-17 -89 -59 -131q-43 -43 -108 -43zM236 745l7 37h26l-7 -37h-26zM314 745l7 37h26l-7 -37h-26z" />
    <glyph glyph-name="Yacute" unicode="&#xdd;" horiz-adv-x="330" 
d="M103 0l59 302l-68 398h23l61 -367l205 367h25l-224 -398l-59 -302h-22zM242 735l81 99l22 -12l-91 -87h-12z" />
    <glyph glyph-name="Thorn" unicode="&#xde;" horiz-adv-x="342" 
d="M5 0l136 700h22l-24 -122h37q79 0 123 -44t44 -125q0 -120 -75 -195q-68 -68 -178 -68h-35l-28 -146h-22zM59 166h30q102 0 163 61q69 69 69 181q0 74 -38 112t-109 38h-39z" />
    <glyph glyph-name="germandbls" unicode="&#xdf;" horiz-adv-x="343" 
d="M92 -2l3 18q90 -2 138.5 49t48.5 135q0 117 -121 154l3 16q81 16 125 70.5t44 138.5q0 50 -22.5 79t-63.5 29q-91 0 -120 -151l-104 -536h-20l105 541q17 92 57 132q34 34 82 34q51 0 79.5 -34.5t28.5 -94.5q0 -75 -40 -136.5t-121 -81.5q46 -17 78 -56t32 -104
q0 -91 -55.5 -149t-156.5 -53z" />
    <glyph glyph-name="agrave" unicode="&#xe0;" horiz-adv-x="330" 
d="M100 -7q-45 0 -71.5 31t-26.5 88q0 110 59 169q40 40 98 40q53 0 106 -32l8 40q11 62 11 91q0 40 -23.5 63t-67.5 23q-43 0 -92 -23l4 23q44 20 91 20q51 0 81 -29t30 -79q0 -28 -11 -85l-65 -333h-22l17 88q-22 -41 -54.5 -68t-71.5 -27zM102 13q46 0 87.5 50t54.5 116
l17 88q-45 34 -103 34q-48 0 -81 -33q-53 -53 -53 -157q0 -45 20.5 -71.5t57.5 -26.5zM209 581l-76 107l21 11l66 -118h-11z" />
    <glyph glyph-name="aacute" unicode="&#xe1;" horiz-adv-x="330" 
d="M100 -7q-45 0 -71.5 31t-26.5 88q0 110 59 169q40 40 98 40q53 0 106 -32l8 40q11 62 11 91q0 40 -23.5 63t-67.5 23q-43 0 -92 -23l4 23q44 20 91 20q51 0 81 -29t30 -79q0 -28 -11 -85l-65 -333h-22l17 88q-22 -41 -54.5 -68t-71.5 -27zM102 13q46 0 87.5 50t54.5 116
l17 88q-45 34 -103 34q-48 0 -81 -33q-53 -53 -53 -157q0 -45 20.5 -71.5t57.5 -26.5zM205 581l90 118l22 -12l-100 -106h-12z" />
    <glyph glyph-name="acircumflex" unicode="&#xe2;" horiz-adv-x="330" 
d="M100 -7q-45 0 -71.5 31t-26.5 88q0 110 59 169q40 40 98 40q53 0 106 -32l8 40q11 62 11 91q0 40 -23.5 63t-67.5 23q-43 0 -92 -23l4 23q44 20 91 20q51 0 81 -29t30 -79q0 -28 -11 -85l-65 -333h-22l17 88q-22 -41 -54.5 -68t-71.5 -27zM102 13q46 0 87.5 50t54.5 116
l17 88q-45 34 -103 34q-48 0 -81 -33q-53 -53 -53 -157q0 -45 20.5 -71.5t57.5 -26.5zM140 586l92 122h15l46 -122h-14l-43 98l-80 -98h-16z" />
    <glyph glyph-name="atilde" unicode="&#xe3;" horiz-adv-x="330" 
d="M100 -7q-45 0 -71.5 31t-26.5 88q0 110 59 169q40 40 98 40q53 0 106 -32l8 40q11 62 11 91q0 40 -23.5 63t-67.5 23q-43 0 -92 -23l4 23q44 20 91 20q51 0 81 -29t30 -79q0 -28 -11 -85l-65 -333h-22l17 88q-22 -41 -54.5 -68t-71.5 -27zM102 13q46 0 87.5 50t54.5 116
l17 88q-45 34 -103 34q-48 0 -81 -33q-53 -53 -53 -157q0 -45 20.5 -71.5t57.5 -26.5zM307 663l16 -4q-24 -67 -59 -67q-17 0 -39 25q-25 27 -36 27q-22 0 -42 -53l-16 4q24 67 59 67q17 0 43 -29q20 -23 32 -23q22 0 42 53z" />
    <glyph glyph-name="adieresis" unicode="&#xe4;" horiz-adv-x="330" 
d="M100 -7q-45 0 -71.5 31t-26.5 88q0 110 59 169q40 40 98 40q53 0 106 -32l8 40q11 62 11 91q0 40 -23.5 63t-67.5 23q-43 0 -92 -23l4 23q44 20 91 20q51 0 81 -29t30 -79q0 -28 -11 -85l-65 -333h-22l17 88q-22 -41 -54.5 -68t-71.5 -27zM102 13q46 0 87.5 50t54.5 116
l17 88q-45 34 -103 34q-48 0 -81 -33q-53 -53 -53 -157q0 -45 20.5 -71.5t57.5 -26.5zM168 591l7 37h26l-7 -37h-26zM246 591l7 37h26l-7 -37h-26z" />
    <glyph glyph-name="aring" unicode="&#xe5;" horiz-adv-x="330" 
d="M100 -7q-45 0 -71.5 31t-26.5 88q0 110 59 169q40 40 98 40q53 0 106 -32l8 40q11 62 11 91q0 40 -23.5 63t-67.5 23q-43 0 -92 -23l4 23q44 20 91 20q51 0 81 -29t30 -79q0 -28 -11 -85l-65 -333h-22l17 88q-22 -41 -54.5 -68t-71.5 -27zM102 13q46 0 87.5 50t54.5 116
l17 88q-45 34 -103 34q-48 0 -81 -33q-53 -53 -53 -157q0 -45 20.5 -71.5t57.5 -26.5zM302 667q0 -32 -21 -54t-52 -22q-29 0 -47 19t-18 47q0 32 21 54t52 22q29 0 47 -19t18 -47zM178 658q0 -24 14 -39t37 -15q26 0 42.5 18.5t16.5 43.5q0 24 -14 39t-37 15
q-26 0 -42.5 -18.5t-16.5 -43.5z" />
    <glyph glyph-name="ae" unicode="&#xe6;" horiz-adv-x="559" 
d="M385 -7q-108 0 -129 132q-66 -132 -156 -132q-45 0 -71.5 31t-26.5 88q0 110 59 169q40 40 98 40q53 0 106 -32l8 40q11 62 11 91q0 40 -23.5 63t-67.5 23q-43 0 -92 -23l4 23q44 20 91 20q53 0 84.5 -33t24.5 -88q25 51 61.5 87t80.5 36q45 0 69.5 -40t24.5 -115
q0 -55 -14 -120h-248q-6 -47 -5 -86q2 -75 32.5 -114.5t79.5 -39.5q46 0 87 26l-1 -22q-39 -24 -87 -24zM102 13q45 0 85.5 43.5t65.5 108.5q-1 47 8 102q-45 34 -103 34q-48 0 -81 -33q-53 -53 -53 -157q0 -45 20.5 -71.5t57.5 -26.5zM376 473q-66 -66 -93 -200h226
q10 49 10 99q0 136 -73 136q-35 0 -70 -35z" />
    <glyph glyph-name="ccedilla" unicode="&#xe7;" horiz-adv-x="273" 
d="M55 -105l-21 10l71 94q-40 14 -62 59t-22 117q0 85 29.5 173t77.5 136q44 44 97 44q39 0 69 -25l-5 -24q-30 28 -66 28q-42 0 -78 -36q-46 -46 -73.5 -130.5t-27.5 -166.5q0 -78 27 -119t71 -41q30 0 60 19l-4 -24q-28 -16 -58 -16q-12 0 -24 3z" />
    <glyph glyph-name="egrave" unicode="&#xe8;" horiz-adv-x="333" 
d="M301 253h-249q-8 -44 -6 -86q2 -74 33 -114t81 -40q46 0 87 26l-1 -22q-39 -24 -87 -24q-59 0 -95 44t-39 130q-3 89 27.5 178.5t80.5 139.5q43 43 88 43t69.5 -40t24.5 -115q0 -55 -14 -120zM149 473q-67 -68 -94 -200h228q10 49 10 99q0 136 -73 136q-36 0 -71 -35z
M219 581l-76 107l21 11l66 -118h-11z" />
    <glyph glyph-name="eacute" unicode="&#xe9;" horiz-adv-x="333" 
d="M301 253h-249q-8 -44 -6 -86q2 -74 33 -114t81 -40q46 0 87 26l-1 -22q-39 -24 -87 -24q-59 0 -95 44t-39 130q-3 89 27.5 178.5t80.5 139.5q43 43 88 43t69.5 -40t24.5 -115q0 -55 -14 -120zM149 473q-67 -68 -94 -200h228q10 49 10 99q0 136 -73 136q-36 0 -71 -35z
M215 581l90 118l22 -12l-100 -106h-12z" />
    <glyph glyph-name="ecircumflex" unicode="&#xea;" horiz-adv-x="333" 
d="M301 253h-249q-8 -44 -6 -86q2 -74 33 -114t81 -40q46 0 87 26l-1 -22q-39 -24 -87 -24q-59 0 -95 44t-39 130q-3 89 27.5 178.5t80.5 139.5q43 43 88 43t69.5 -40t24.5 -115q0 -55 -14 -120zM149 473q-67 -68 -94 -200h228q10 49 10 99q0 136 -73 136q-36 0 -71 -35z
M150 586l92 122h15l46 -122h-14l-43 98l-80 -98h-16z" />
    <glyph glyph-name="edieresis" unicode="&#xeb;" horiz-adv-x="333" 
d="M301 253h-249q-8 -44 -6 -86q2 -74 33 -114t81 -40q46 0 87 26l-1 -22q-39 -24 -87 -24q-59 0 -95 44t-39 130q-3 89 27.5 178.5t80.5 139.5q43 43 88 43t69.5 -40t24.5 -115q0 -55 -14 -120zM149 473q-67 -68 -94 -200h228q10 49 10 99q0 136 -73 136q-36 0 -71 -35z
M178 591l7 37h26l-7 -37h-26zM256 591l7 37h26l-7 -37h-26z" />
    <glyph glyph-name="igrave" unicode="&#xec;" horiz-adv-x="135" 
d="M7 0l100 521h21l-100 -521h-21zM120 576l-76 107l21 11l66 -118h-11z" />
    <glyph glyph-name="iacute" unicode="&#xed;" horiz-adv-x="135" 
d="M7 0l100 521h21l-100 -521h-21zM116 576l90 118l22 -12l-100 -106h-12z" />
    <glyph glyph-name="icircumflex" unicode="&#xee;" horiz-adv-x="135" 
d="M7 0l100 521h21l-100 -521h-21zM51 581l92 122h15l46 -122h-14l-43 98l-80 -98h-16z" />
    <glyph glyph-name="idieresis" unicode="&#xef;" horiz-adv-x="135" 
d="M7 0l100 521h21l-100 -521h-21zM79 586l7 37h26l-7 -37h-26zM157 586l7 37h26l-7 -37h-26z" />
    <glyph glyph-name="eth" unicode="&#xf0;" horiz-adv-x="346" 
d="M160 583l-6 16l95 42q-15 31 -36 66h24q14 -24 30 -58l74 32l6 -16l-72 -32q55 -123 55 -246q0 -111 -31 -206t-85 -149q-39 -39 -84 -39q-50 0 -78 45.5t-28 126.5q0 94 30.5 186t81.5 143q39 39 83 39q59 0 90 -81q-17 96 -52 173zM131 13q36 0 69 33q47 47 76 136
t29 178q0 69 -24 111t-62 42q-36 0 -69 -33q-47 -47 -76 -136t-29 -178q0 -70 22.5 -111.5t63.5 -41.5z" />
    <glyph glyph-name="ntilde" unicode="&#xf1;" horiz-adv-x="360" 
d="M2 0l101 521h21l-18 -91q19 41 54.5 69.5t80.5 28.5q38 0 66.5 -25t28.5 -81q0 -35 -17 -120l-59 -302h-21l59 300q17 87 17 119q0 47 -22 68t-56 21q-53 0 -93 -45.5t-55 -121.5l-66 -341h-21zM321 663l16 -4q-24 -67 -59 -67q-17 0 -39 25q-26 27 -36 27q-22 0 -42 -53
l-16 4q24 67 59 67q17 0 43 -29q20 -23 32 -23q22 0 42 53z" />
    <glyph glyph-name="ograve" unicode="&#xf2;" horiz-adv-x="356" 
d="M224 528q50 0 79 -45t29 -125q0 -92 -30 -182t-80 -140q-43 -43 -90 -43q-50 0 -79 45t-29 125q0 92 30 182t80 140q43 43 90 43zM133 13q37 0 73 36q45 45 74.5 132.5t29.5 175.5q0 69 -23 110t-64 41q-37 0 -73 -36q-45 -45 -74.5 -132.5t-29.5 -175.5q0 -69 23 -110
t64 -41zM232 581l-76 107l21 11l66 -118h-11z" />
    <glyph glyph-name="oacute" unicode="&#xf3;" horiz-adv-x="356" 
d="M224 528q50 0 79 -45t29 -125q0 -92 -30 -182t-80 -140q-43 -43 -90 -43q-50 0 -79 45t-29 125q0 92 30 182t80 140q43 43 90 43zM133 13q37 0 73 36q45 45 74.5 132.5t29.5 175.5q0 69 -23 110t-64 41q-37 0 -73 -36q-45 -45 -74.5 -132.5t-29.5 -175.5q0 -69 23 -110
t64 -41zM228 581l90 118l22 -12l-100 -106h-12z" />
    <glyph glyph-name="ocircumflex" unicode="&#xf4;" horiz-adv-x="356" 
d="M224 528q50 0 79 -45t29 -125q0 -92 -30 -182t-80 -140q-43 -43 -90 -43q-50 0 -79 45t-29 125q0 92 30 182t80 140q43 43 90 43zM133 13q37 0 73 36q45 45 74.5 132.5t29.5 175.5q0 69 -23 110t-64 41q-37 0 -73 -36q-45 -45 -74.5 -132.5t-29.5 -175.5q0 -69 23 -110
t64 -41zM163 586l92 122h15l46 -122h-14l-43 98l-80 -98h-16z" />
    <glyph glyph-name="otilde" unicode="&#xf5;" horiz-adv-x="356" 
d="M224 528q50 0 79 -45t29 -125q0 -92 -30 -182t-80 -140q-43 -43 -90 -43q-50 0 -79 45t-29 125q0 92 30 182t80 140q43 43 90 43zM133 13q37 0 73 36q45 45 74.5 132.5t29.5 175.5q0 69 -23 110t-64 41q-37 0 -73 -36q-45 -45 -74.5 -132.5t-29.5 -175.5q0 -69 23 -110
t64 -41zM329 663l16 -4q-24 -67 -59 -67q-17 0 -39 25q-26 27 -36 27q-22 0 -42 -53l-16 4q24 67 59 67q17 0 43 -29q20 -23 32 -23q22 0 42 53z" />
    <glyph glyph-name="odieresis" unicode="&#xf6;" horiz-adv-x="356" 
d="M224 528q50 0 79 -45t29 -125q0 -92 -30 -182t-80 -140q-43 -43 -90 -43q-50 0 -79 45t-29 125q0 92 30 182t80 140q43 43 90 43zM133 13q37 0 73 36q45 45 74.5 132.5t29.5 175.5q0 69 -23 110t-64 41q-37 0 -73 -36q-45 -45 -74.5 -132.5t-29.5 -175.5q0 -69 23 -110
t64 -41zM191 591l7 37h26l-7 -37h-26zM269 591l7 37h26l-7 -37h-26z" />
    <glyph glyph-name="divide" unicode="&#xf7;" horiz-adv-x="328" 
d="M138 203l8 43h26l-8 -43h-26zM43 341l5 22h270l-5 -22h-270zM189 458l8 43h26l-8 -43h-26z" />
    <glyph glyph-name="oslash" unicode="&#xf8;" horiz-adv-x="354" 
d="M224 528q54 0 84 -55l37 54h19l-47 -73q15 -39 15 -96q0 -92 -30 -182t-80 -140q-43 -43 -90 -43q-56 0 -85 55l-36 -54h-19l47 72q-15 39 -15 97q0 92 30 182t80 140q43 43 90 43zM223 508q-37 0 -73 -36q-45 -45 -74.5 -132.5t-29.5 -175.5q0 -40 8 -75l241 361
q-23 58 -72 58zM310 357q0 43 -9 74l-240 -361q22 -57 72 -57q37 0 73 36q45 45 74.5 132.5t29.5 175.5z" />
    <glyph glyph-name="ugrave" unicode="&#xf9;" horiz-adv-x="360" 
d="M119 -7q-38 0 -66.5 25t-28.5 81q0 35 17 120l59 302h21l-59 -300q-17 -87 -17 -119q0 -47 22 -68t56 -21q52 0 92 45t55 122l67 341h21l-101 -521h-21l17 91q-19 -42 -54 -70t-80 -28zM228 571l-76 107l21 11l66 -118h-11z" />
    <glyph glyph-name="uacute" unicode="&#xfa;" horiz-adv-x="360" 
d="M119 -7q-38 0 -66.5 25t-28.5 81q0 35 17 120l59 302h21l-59 -300q-17 -87 -17 -119q0 -47 22 -68t56 -21q52 0 92 45t55 122l67 341h21l-101 -521h-21l17 91q-19 -42 -54 -70t-80 -28zM224 571l90 118l22 -12l-100 -106h-12z" />
    <glyph glyph-name="ucircumflex" unicode="&#xfb;" horiz-adv-x="360" 
d="M119 -7q-38 0 -66.5 25t-28.5 81q0 35 17 120l59 302h21l-59 -300q-17 -87 -17 -119q0 -47 22 -68t56 -21q52 0 92 45t55 122l67 341h21l-101 -521h-21l17 91q-19 -42 -54 -70t-80 -28zM159 576l92 122h15l46 -122h-14l-43 98l-80 -98h-16z" />
    <glyph glyph-name="udieresis" unicode="&#xfc;" horiz-adv-x="360" 
d="M119 -7q-38 0 -66.5 25t-28.5 81q0 35 17 120l59 302h21l-59 -300q-17 -87 -17 -119q0 -47 22 -68t56 -21q52 0 92 45t55 122l67 341h21l-101 -521h-21l17 91q-19 -42 -54 -70t-80 -28zM186 581l7 37h26l-7 -37h-26zM264 581l7 37h26l-7 -37h-26z" />
    <glyph glyph-name="yacute" unicode="&#xfd;" horiz-adv-x="323" 
d="M103 14l-32 507h20l28 -472l213 472h22l-295 -651h-22zM201 571l90 118l22 -12l-100 -106h-12z" />
    <glyph glyph-name="thorn" unicode="&#xfe;" horiz-adv-x="367" 
d="M160 707l-60 -311q59 132 141 132q49 0 75.5 -45.5t26.5 -122.5q0 -90 -31.5 -183t-81.5 -143q-41 -41 -85 -41q-51 0 -73.5 44t-22.5 96l-51 -263h-21l162 837h21zM144 13q36 0 71 35q46 46 76 136.5t30 176.5q0 66 -21.5 106.5t-61.5 40.5q-34 0 -67 -33
q-48 -48 -78.5 -136t-30.5 -180q0 -58 19.5 -102t62.5 -44z" />
    <glyph glyph-name="ydieresis" unicode="&#xff;" horiz-adv-x="323" 
d="M103 14l-32 507h20l28 -472l213 472h22l-295 -651h-22zM242 581l7 37h26l-7 -37h-26zM164 581l7 37h26l-7 -37h-26z" />
    <glyph glyph-name="Amacron" unicode="&#x100;" horiz-adv-x="385" 
d="M-23 0l290 705h23l17 -705h-22l-5 212h-193l-86 -212h-24zM95 232h185l-9 429zM203 757l4 18h160l-4 -18h-160z" />
    <glyph glyph-name="amacron" unicode="&#x101;" horiz-adv-x="330" 
d="M100 -7q-45 0 -71.5 31t-26.5 88q0 110 59 169q40 40 98 40q53 0 106 -32l8 40q11 62 11 91q0 40 -23.5 63t-67.5 23q-43 0 -92 -23l4 23q44 20 91 20q51 0 81 -29t30 -79q0 -28 -11 -85l-65 -333h-22l17 88q-22 -41 -54.5 -68t-71.5 -27zM102 13q46 0 87.5 50t54.5 116
l17 88q-45 34 -103 34q-48 0 -81 -33q-53 -53 -53 -157q0 -45 20.5 -71.5t57.5 -26.5zM140 593l4 18h160l-4 -18h-160z" />
    <glyph glyph-name="Abreve" unicode="&#x102;" horiz-adv-x="385" 
d="M-23 0l290 705h23l17 -705h-22l-5 212h-193l-86 -212h-24zM95 232h185l-9 429zM282 748q-37 0 -59.5 20t-21.5 59h18q-1 -28 15 -44.5t48 -16.5q65 0 87 61h18q-26 -79 -105 -79z" />
    <glyph glyph-name="abreve" unicode="&#x103;" horiz-adv-x="330" 
d="M100 -7q-45 0 -71.5 31t-26.5 88q0 110 59 169q40 40 98 40q53 0 106 -32l8 40q11 62 11 91q0 40 -23.5 63t-67.5 23q-43 0 -92 -23l4 23q44 20 91 20q51 0 81 -29t30 -79q0 -28 -11 -85l-65 -333h-22l17 88q-22 -41 -54.5 -68t-71.5 -27zM102 13q46 0 87.5 50t54.5 116
l17 88q-45 34 -103 34q-48 0 -81 -33q-53 -53 -53 -157q0 -45 20.5 -71.5t57.5 -26.5zM216 584q-40 0 -59.5 25.5t-17.5 68.5h18q-4 -76 60 -76q62 0 90 76h18q-32 -94 -109 -94z" />
    <glyph glyph-name="Aogonek" unicode="&#x104;" horiz-adv-x="385" 
d="M300 -93l-3 -15q-8 -1 -14 -1q-46 0 -46 36q0 31 51 73h-3l-5 212h-193l-86 -212h-24l290 705h23l17 -701v-4h-4q-46 -45 -46 -69q0 -26 43 -24zM95 232h185l-9 429z" />
    <glyph glyph-name="aogonek" unicode="&#x105;" horiz-adv-x="330" 
d="M224 -93l-3 -15q-8 -1 -14 -1q-46 0 -46 36q0 31 51 73h-3l17 88q-22 -41 -54.5 -68t-71.5 -27q-45 0 -71.5 31t-26.5 88q0 110 59 169q40 40 98 40q53 0 106 -32l8 40q11 62 11 91q0 40 -23.5 63t-67.5 23q-43 0 -92 -23l4 23q44 20 91 20q51 0 81 -29t30 -79
q0 -28 -11 -85l-65 -333h-4q-46 -45 -46 -69q0 -26 43 -24zM102 13q46 0 87.5 50t54.5 116l17 88q-45 34 -103 34q-48 0 -81 -33q-53 -53 -53 -157q0 -45 20.5 -71.5t57.5 -26.5z" />
    <glyph glyph-name="Cacute" unicode="&#x106;" horiz-adv-x="316" 
d="M173 -7q-61 0 -96.5 56t-35.5 166q0 118 36.5 243.5t106.5 195.5q53 53 113 53q43 0 74 -25l-5 -24q-32 29 -70 29q-50 0 -95 -45q-64 -64 -101 -185.5t-37 -242.5q0 -97 30 -149t82 -52q32 0 67 23l-5 -24q-29 -19 -64 -19zM279 745l81 99l22 -12l-91 -87h-12z" />
    <glyph glyph-name="cacute" unicode="&#x107;" horiz-adv-x="273" 
d="M140 -7q-54 0 -86.5 48t-32.5 134q0 85 29.5 173t77.5 136q44 44 97 44q39 0 69 -25l-5 -24q-30 28 -66 28q-42 0 -78 -36q-46 -46 -73.5 -130.5t-27.5 -166.5q0 -78 27 -119t71 -41q30 0 60 19l-4 -24q-28 -16 -58 -16zM205 581l90 118l22 -12l-100 -106h-12z" />
    <glyph glyph-name="Cdotaccent" unicode="&#x10a;" horiz-adv-x="316" 
d="M173 -7q-61 0 -96.5 56t-35.5 166q0 118 36.5 243.5t106.5 195.5q53 53 113 53q43 0 74 -25l-5 -24q-32 29 -70 29q-50 0 -95 -45q-64 -64 -101 -185.5t-37 -242.5q0 -97 30 -149t82 -52q32 0 67 23l-5 -24q-29 -19 -64 -19zM276 755l7 37h26l-7 -37h-26z" />
    <glyph glyph-name="cdotaccent" unicode="&#x10b;" horiz-adv-x="273" 
d="M140 -7q-54 0 -86.5 48t-32.5 134q0 85 29.5 173t77.5 136q44 44 97 44q39 0 69 -25l-5 -24q-30 28 -66 28q-42 0 -78 -36q-46 -46 -73.5 -130.5t-27.5 -166.5q0 -78 27 -119t71 -41q30 0 60 19l-4 -24q-28 -16 -58 -16zM207 591l7 37h26l-7 -37h-26z" />
    <glyph glyph-name="Ccaron" unicode="&#x10c;" horiz-adv-x="316" 
d="M173 -7q-61 0 -96.5 56t-35.5 166q0 118 36.5 243.5t106.5 195.5q53 53 113 53q43 0 74 -25l-5 -24q-32 29 -70 29q-50 0 -95 -45q-64 -64 -101 -185.5t-37 -242.5q0 -97 30 -149t82 -52q32 0 67 23l-5 -24q-29 -19 -64 -19zM383 847l-88 -97h-15l-50 97h14l47 -74l76 74
h16z" />
    <glyph glyph-name="ccaron" unicode="&#x10d;" horiz-adv-x="273" 
d="M140 -7q-54 0 -86.5 48t-32.5 134q0 85 29.5 173t77.5 136q44 44 97 44q39 0 69 -25l-5 -24q-30 28 -66 28q-42 0 -78 -36q-46 -46 -73.5 -130.5t-27.5 -166.5q0 -78 27 -119t71 -41q30 0 60 19l-4 -24q-28 -16 -58 -16zM211 586l-46 122h14l43 -98l80 98h16l-92 -122
h-15z" />
    <glyph glyph-name="Dcaron" unicode="&#x10e;" horiz-adv-x="383" 
d="M5 0l136 700h53q77 0 121 -44q59 -59 59 -188q0 -97 -34.5 -212.5t-103.5 -184.5q-71 -71 -166 -71h-65zM299 641q-39 39 -108 39h-32l-128 -660h39q85 0 151 66q65 65 98 176t33 207q0 119 -53 172zM342 842l-88 -97h-15l-50 97h14l47 -74l76 74h16z" />
    <glyph glyph-name="dcaron" unicode="&#x10f;" horiz-adv-x="366" 
d="M241 0l24 125q-59 -132 -141 -132q-49 0 -75.5 45.5t-26.5 122.5q0 90 31.5 183t81.5 143q41 41 85 41q51 0 73.5 -44t22.5 -96l63 319h21l-138 -707h-21zM127 13q34 0 67 33q48 48 78.5 136t30.5 180q0 58 -19.5 102t-62.5 44q-36 0 -71 -35q-46 -46 -76 -136.5
t-30 -176.5q0 -66 21.5 -106.5t61.5 -40.5zM408 559l37 148h21v-2l-48 -146h-10z" />
    <glyph glyph-name="Dcroat" unicode="&#x110;" horiz-adv-x="390" 
d="M34 343l4 19h44l66 338h53q77 0 121 -44q59 -59 59 -188q0 -97 -34.5 -212.5t-103.5 -184.5q-71 -71 -166 -71h-65l66 343h-44zM306 641q-39 39 -108 39h-32l-62 -318h105l-4 -19h-105l-62 -323h39q85 0 151 66q65 65 98 176t33 207q0 119 -53 172z" />
    <glyph glyph-name="dcroat" unicode="&#x111;" horiz-adv-x="366" 
d="M243 608l3 18h117l16 81h21l-16 -81h49l-3 -18h-50l-118 -608h-21l24 125q-59 -132 -141 -132q-49 0 -75.5 45.5t-26.5 122.5q0 90 31.5 183t81.5 143q41 41 85 41q51 0 73.5 -44t22.5 -96l43 220h-116zM127 13q34 0 67 33q48 48 78.5 136t30.5 180q0 58 -19.5 102
t-62.5 44q-36 0 -71 -35q-46 -46 -76 -136.5t-30 -176.5q0 -66 21.5 -106.5t61.5 -40.5z" />
    <glyph glyph-name="Emacron" unicode="&#x112;" horiz-adv-x="313" 
d="M5 0l136 700h226l-4 -20h-204l-61 -317h186l-4 -20h-186l-63 -323h206l-4 -20h-228zM177 752l4 18h160l-4 -18h-160z" />
    <glyph glyph-name="emacron" unicode="&#x113;" horiz-adv-x="333" 
d="M301 253h-249q-8 -44 -6 -86q2 -74 33 -114t81 -40q46 0 87 26l-1 -22q-39 -24 -87 -24q-59 0 -95 44t-39 130q-3 89 27.5 178.5t80.5 139.5q43 43 88 43t69.5 -40t24.5 -115q0 -55 -14 -120zM149 473q-67 -68 -94 -200h228q10 49 10 99q0 136 -73 136q-36 0 -71 -35z
M149 593l4 18h160l-4 -18h-160z" />
    <glyph glyph-name="Ebreve" unicode="&#x114;" horiz-adv-x="313" 
d="M5 0l136 700h226l-4 -20h-204l-61 -317h186l-4 -20h-186l-63 -323h206l-4 -20h-228zM255 743q-37 0 -59.5 20t-21.5 59h18q-1 -28 15 -44.5t48 -16.5q65 0 87 61h18q-26 -79 -105 -79z" />
    <glyph glyph-name="ebreve" unicode="&#x115;" horiz-adv-x="333" 
d="M301 253h-249q-8 -44 -6 -86q2 -74 33 -114t81 -40q46 0 87 26l-1 -22q-39 -24 -87 -24q-59 0 -95 44t-39 130q-3 89 27.5 178.5t80.5 139.5q43 43 88 43t69.5 -40t24.5 -115q0 -55 -14 -120zM149 473q-67 -68 -94 -200h228q10 49 10 99q0 136 -73 136q-36 0 -71 -35z
M226 584q-40 0 -59.5 25.5t-17.5 68.5h18q-4 -76 60 -76q62 0 90 76h18q-32 -94 -109 -94z" />
    <glyph glyph-name="Edotaccent" unicode="&#x116;" horiz-adv-x="313" 
d="M5 0l136 700h226l-4 -20h-204l-61 -317h186l-4 -20h-186l-63 -323h206l-4 -20h-228zM244 750l7 37h26l-7 -37h-26z" />
    <glyph glyph-name="edotaccent" unicode="&#x117;" horiz-adv-x="333" 
d="M301 253h-249q-8 -44 -6 -86q2 -74 33 -114t81 -40q46 0 87 26l-1 -22q-39 -24 -87 -24q-59 0 -95 44t-39 130q-3 89 27.5 178.5t80.5 139.5q43 43 88 43t69.5 -40t24.5 -115q0 -55 -14 -120zM149 473q-67 -68 -94 -200h228q10 49 10 99q0 136 -73 136q-36 0 -71 -35z
M217 591l7 37h26l-7 -37h-26z" />
    <glyph glyph-name="Eogonek" unicode="&#x118;" horiz-adv-x="313" 
d="M5 0l136 700h226l-4 -20h-204l-61 -317h186l-4 -20h-186l-63 -323h206l-4 -20h-13q-46 -45 -46 -69q0 -26 43 -24l-3 -15q-8 -1 -14 -1q-46 0 -46 36q0 31 51 73h-200z" />
    <glyph glyph-name="eogonek" unicode="&#x119;" horiz-adv-x="333" 
d="M247 39l-1 -22q-26 -16 -46 -36q-28 -28 -28 -50q0 -26 43 -24l-3 -15q-8 -1 -14 -1q-46 0 -46 36q0 31 51 72q-21 -6 -44 -6q-59 0 -95 44t-39 130q-3 89 27.5 178.5t80.5 139.5q43 43 88 43t69.5 -40t24.5 -115q0 -55 -14 -120h-249q-8 -44 -6 -86q2 -74 33 -114
t81 -40q46 0 87 26zM149 473q-67 -68 -94 -200h228q10 49 10 99q0 136 -73 136q-36 0 -71 -35z" />
    <glyph glyph-name="Ecaron" unicode="&#x11a;" horiz-adv-x="313" 
d="M5 0l136 700h226l-4 -20h-204l-61 -317h186l-4 -20h-186l-63 -323h206l-4 -20h-228zM351 842l-88 -97h-15l-50 97h14l47 -74l76 74h16z" />
    <glyph glyph-name="ecaron" unicode="&#x11b;" horiz-adv-x="333" 
d="M301 253h-249q-8 -44 -6 -86q2 -74 33 -114t81 -40q46 0 87 26l-1 -22q-39 -24 -87 -24q-59 0 -95 44t-39 130q-3 89 27.5 178.5t80.5 139.5q43 43 88 43t69.5 -40t24.5 -115q0 -55 -14 -120zM149 473q-67 -68 -94 -200h228q10 49 10 99q0 136 -73 136q-36 0 -71 -35z
M221 586l-46 122h14l43 -98l80 98h16l-92 -122h-15z" />
    <glyph glyph-name="Gbreve" unicode="&#x11e;" horiz-adv-x="371" 
d="M198 -7q-69 0 -112.5 62t-43.5 182q0 111 38.5 225.5t106.5 182.5q62 62 135 62q46 0 87 -30l-5 -24q-40 34 -84 34q-62 0 -116 -54q-63 -63 -101.5 -175t-38.5 -219q0 -110 37.5 -168t98.5 -58q37 0 59 16l58 297h-115l4 20h136l-65 -330q-32 -23 -79 -23zM312 748
q-37 0 -59.5 20t-21.5 59h18q-1 -28 15 -44.5t48 -16.5q65 0 87 61h18q-26 -79 -105 -79z" />
    <glyph glyph-name="gbreve" unicode="&#x11f;" horiz-adv-x="363" 
d="M99 -131q-66 0 -115 26l4 22q48 -28 109 -28q68 0 101 33q32 32 48 116l19 102q-67 -118 -136 -117q-48 1 -74.5 45.5t-26.5 114.5q0 86 31.5 173t75.5 131q41 41 84 41q35 0 58 -25t30 -49.5t9 -50.5l23 118h21l-91 -471q-11 -58 -23 -91.5t-39 -56.5q-38 -33 -108 -33z
M132 43q33 0 66 33q49 49 75.5 130.5t26.5 155.5q0 59 -19 102.5t-61 43.5q-35 0 -70 -35q-40 -40 -70 -124t-30 -167q0 -61 21.5 -100t60.5 -39zM238 584q-40 0 -59.5 25.5t-17.5 68.5h18q-4 -76 60 -76q62 0 90 76h18q-32 -94 -109 -94z" />
    <glyph glyph-name="Gdotaccent" unicode="&#x120;" horiz-adv-x="371" 
d="M198 -7q-69 0 -112.5 62t-43.5 182q0 111 38.5 225.5t106.5 182.5q62 62 135 62q46 0 87 -30l-5 -24q-40 34 -84 34q-62 0 -116 -54q-63 -63 -101.5 -175t-38.5 -219q0 -110 37.5 -168t98.5 -58q37 0 59 16l58 297h-115l4 20h136l-65 -330q-32 -23 -79 -23zM301 755l7 37
h26l-7 -37h-26z" />
    <glyph glyph-name="gdotaccent" unicode="&#x121;" horiz-adv-x="363" 
d="M99 -131q-66 0 -115 26l4 22q48 -28 109 -28q68 0 101 33q32 32 48 116l19 102q-67 -118 -136 -117q-48 1 -74.5 45.5t-26.5 114.5q0 86 31.5 173t75.5 131q41 41 84 41q35 0 58 -25t30 -49.5t9 -50.5l23 118h21l-91 -471q-11 -58 -23 -91.5t-39 -56.5q-38 -33 -108 -33z
M132 43q33 0 66 33q49 49 75.5 130.5t26.5 155.5q0 59 -19 102.5t-61 43.5q-35 0 -70 -35q-40 -40 -70 -124t-30 -167q0 -61 21.5 -100t60.5 -39zM229 591l7 37h26l-7 -37h-26z" />
    <glyph glyph-name="Gcommaaccent" unicode="&#x122;" horiz-adv-x="371" 
d="M198 -7q-69 0 -112.5 62t-43.5 182q0 111 38.5 225.5t106.5 182.5q62 62 135 62q46 0 87 -30l-5 -24q-40 34 -84 34q-62 0 -116 -54q-63 -63 -101.5 -175t-38.5 -219q0 -110 37.5 -168t98.5 -58q37 0 59 16l58 297h-115l4 20h136l-65 -330q-32 -23 -79 -23zM114 -175
l-5 13q17 9 23 17.5t9 29.5h-11l10 50h28l-11 -58q-4 -23 -13.5 -33t-29.5 -19z" />
    <glyph glyph-name="gcommaaccent" unicode="&#x123;" horiz-adv-x="363" 
d="M99 -131q-66 0 -115 26l4 22q48 -28 109 -28q68 0 101 33q32 32 48 116l19 102q-67 -118 -136 -117q-48 1 -74.5 45.5t-26.5 114.5q0 86 31.5 173t75.5 131q41 41 84 41q35 0 58 -25t30 -49.5t9 -50.5l23 118h21l-91 -471q-11 -58 -23 -91.5t-39 -56.5q-38 -33 -108 -33z
M132 43q33 0 66 33q49 49 75.5 130.5t26.5 155.5q0 59 -19 102.5t-61 43.5q-35 0 -70 -35q-40 -40 -70 -124t-30 -167q0 -61 21.5 -100t60.5 -39zM282 701l5 -13q-17 -9 -23 -17.5t-9 -29.5h11l-10 -50h-28l11 58q4 23 13.5 33t29.5 19z" />
    <glyph glyph-name="Hbar" unicode="&#x126;" horiz-adv-x="414" 
d="M65 566l4 18h55l23 116h22l-23 -116h248l23 116h22l-23 -116h53l-4 -18h-52l-110 -566h-22l66 343h-248l-66 -343h-22l110 566h-56zM103 363h248l40 203h-248z" />
    <glyph glyph-name="hbar" unicode="&#x127;" horiz-adv-x="360" 
d="M72 608l3 18h48l16 81h21l-16 -81h118l-3 -18h-119l-34 -178q19 41 54.5 69.5t80.5 28.5q38 0 66.5 -25t28.5 -81q0 -35 -17 -120l-59 -302h-21l59 300q17 87 17 119q0 47 -22 68t-56 21q-53 0 -93 -45.5t-55 -121.5l-66 -341h-21l118 608h-48z" />
    <glyph glyph-name="Imacron" unicode="&#x12a;" horiz-adv-x="144" 
d="M11 0l136 700h22l-136 -700h-22zM88 752l4 18h160l-4 -18h-160z" />
    <glyph glyph-name="imacron" unicode="&#x12b;" horiz-adv-x="135" 
d="M7 0l100 521h21l-100 -521h-21zM51 588l4 18h160l-4 -18h-160z" />
    <glyph glyph-name="Ibreve" unicode="&#x12c;" horiz-adv-x="144" 
d="M11 0l136 700h22l-136 -700h-22zM166 743q-37 0 -59.5 20t-21.5 59h18q-1 -28 15 -44.5t48 -16.5q65 0 87 61h18q-26 -79 -105 -79z" />
    <glyph glyph-name="ibreve" unicode="&#x12d;" horiz-adv-x="135" 
d="M7 0l100 521h21l-100 -521h-21zM127 579q-40 0 -59.5 25.5t-17.5 68.5h18q-4 -76 60 -76q62 0 90 76h18q-32 -94 -109 -94z" />
    <glyph glyph-name="Iogonek" unicode="&#x12e;" horiz-adv-x="144" 
d="M11 0l136 700h22l-136 -696h1l-1 -1v-3h-3q-46 -45 -46 -69q0 -26 43 -24l-3 -15q-8 -1 -14 -1q-46 0 -46 36q0 29 51 73h-4z" />
    <glyph glyph-name="iogonek" unicode="&#x12f;" horiz-adv-x="135" 
d="M7 0l100 521h21l-100 -521h-4q-46 -45 -46 -69q0 -26 43 -24l-3 -15q-8 -1 -14 -1q-46 0 -46 36q0 29 51 73h-2zM130 650l11 57h25l-11 -57h-25z" />
    <glyph glyph-name="Idotaccent" unicode="&#x130;" horiz-adv-x="144" 
d="M11 0l136 700h22l-136 -700h-22zM155 750l7 37h26l-7 -37h-26z" />
    <glyph glyph-name="dotlessi" unicode="&#x131;" horiz-adv-x="135" 
d="M7 0l100 521h21l-100 -521h-21z" />
    <glyph glyph-name="Kcommaaccent" unicode="&#x136;" horiz-adv-x="332" 
d="M5 0l136 700h22l-82 -421l288 421h26l-225 -324l103 -376h-22l-96 353l-83 -119l-45 -234h-22zM69 -175l-5 13q17 9 23 17.5t9 29.5h-11l10 50h28l-11 -58q-4 -23 -13.5 -33t-29.5 -19z" />
    <glyph glyph-name="kcommaaccent" unicode="&#x137;" horiz-adv-x="290" 
d="M3 0l136 707h21l-100 -520l238 334h25l-158 -218l67 -303h-21l-62 281l-97 -134l-28 -147h-21zM53 -175l-5 13q17 9 23 17.5t9 29.5h-11l10 50h28l-11 -58q-4 -23 -13.5 -33t-29.5 -19z" />
    <glyph glyph-name="Lacute" unicode="&#x139;" horiz-adv-x="274" 
d="M5 0l136 700h22l-132 -680h185l-4 -20h-207zM152 740l81 99l22 -12l-91 -87h-12z" />
    <glyph glyph-name="lacute" unicode="&#x13a;" horiz-adv-x="135" 
d="M7 0l136 707h21l-137 -707h-20zM151 762l81 99l22 -12l-91 -87h-12z" />
    <glyph glyph-name="Lcommaaccent" unicode="&#x13b;" horiz-adv-x="274" 
d="M5 0l136 700h22l-132 -680h185l-4 -20h-207zM53 -175l-5 13q17 9 23 17.5t9 29.5h-11l10 50h28l-11 -58q-4 -23 -13.5 -33t-29.5 -19z" />
    <glyph glyph-name="lcommaaccent" unicode="&#x13c;" horiz-adv-x="135" 
d="M7 0l136 707h21l-137 -707h-20zM-36 -175l-5 13q17 9 23 17.5t9 29.5h-11l10 50h28l-11 -58q-4 -23 -13.5 -33t-29.5 -19z" />
    <glyph glyph-name="Lcaron" unicode="&#x13d;" horiz-adv-x="274" 
d="M5 0l136 700h22l-132 -680h185l-4 -20h-207zM181 552l37 148h21v-2l-48 -146h-10z" />
    <glyph glyph-name="lcaron" unicode="&#x13e;" horiz-adv-x="135" 
d="M7 0l136 707h21l-137 -707h-20zM172 559l37 148h21v-2l-48 -146h-10z" />
    <glyph glyph-name="Ldot" unicode="&#x13f;" horiz-adv-x="274" 
d="M202 327l7 37h26l-7 -37h-26zM5 0l136 700h22l-132 -680h185l-4 -20h-207z" />
    <glyph glyph-name="ldot" unicode="&#x140;" horiz-adv-x="157" 
d="M144 320l8 42h24l-8 -42h-24zM7 0l136 707h21l-137 -707h-20z" />
    <glyph glyph-name="Lslash" unicode="&#x141;" horiz-adv-x="282" 
d="M10 271l5 24l62 38l72 367h22l-69 -352l108 65l-5 -24l-107 -65l-59 -304h185l-4 -20h-207l60 309z" />
    <glyph glyph-name="lslash" unicode="&#x142;" horiz-adv-x="155" 
d="M14 301l5 24l68 41l66 341h21l-64 -327l71 42l-5 -24l-70 -43l-69 -355h-20l66 342z" />
    <glyph glyph-name="Nacute" unicode="&#x143;" horiz-adv-x="408" 
d="M5 0l136 700h23l127 -643l125 643h21l-136 -700h-19l-129 653l-127 -653h-21zM281 735l81 99l22 -12l-91 -87h-12z" />
    <glyph glyph-name="nacute" unicode="&#x144;" horiz-adv-x="360" 
d="M2 0l101 521h21l-18 -91q19 41 54.5 69.5t80.5 28.5q38 0 66.5 -25t28.5 -81q0 -35 -17 -120l-59 -302h-21l59 300q17 87 17 119q0 47 -22 68t-56 21q-53 0 -93 -45.5t-55 -121.5l-66 -341h-21zM219 581l90 118l22 -12l-100 -106h-12z" />
    <glyph glyph-name="Ncommaaccent" unicode="&#x145;" horiz-adv-x="408" 
d="M5 0l136 700h23l127 -643l125 643h21l-136 -700h-19l-129 653l-127 -653h-21zM93 -175l-5 13q17 9 23 17.5t9 29.5h-11l10 50h28l-11 -58q-4 -23 -13.5 -33t-29.5 -19z" />
    <glyph glyph-name="ncommaaccent" unicode="&#x146;" horiz-adv-x="360" 
d="M2 0l101 521h21l-18 -91q19 41 54.5 69.5t80.5 28.5q38 0 66.5 -25t28.5 -81q0 -35 -17 -120l-59 -302h-21l59 300q17 87 17 119q0 47 -22 68t-56 21q-53 0 -93 -45.5t-55 -121.5l-66 -341h-21zM65 -175l-5 13q17 9 23 17.5t9 29.5h-11l10 50h28l-11 -58
q-4 -23 -13.5 -33t-29.5 -19z" />
    <glyph glyph-name="Ncaron" unicode="&#x147;" horiz-adv-x="408" 
d="M5 0l136 700h23l127 -643l125 643h21l-136 -700h-19l-129 653l-127 -653h-21zM385 837l-88 -97h-15l-50 97h14l47 -74l76 74h16z" />
    <glyph glyph-name="ncaron" unicode="&#x148;" horiz-adv-x="360" 
d="M2 0l101 521h21l-18 -91q19 41 54.5 69.5t80.5 28.5q38 0 66.5 -25t28.5 -81q0 -35 -17 -120l-59 -302h-21l59 300q17 87 17 119q0 47 -22 68t-56 21q-53 0 -93 -45.5t-55 -121.5l-66 -341h-21zM225 586l-46 122h14l43 -98l80 98h16l-92 -122h-15z" />
    <glyph glyph-name="Omacron" unicode="&#x14c;" horiz-adv-x="396" 
d="M277 707q55 0 86 -50t31 -145q0 -128 -41 -268.5t-107 -206.5q-44 -44 -92 -44q-55 0 -86 50t-31 145q0 128 41 268.5t107 206.5q44 44 92 44zM155 13q38 0 76 38q62 62 101.5 201.5t39.5 259.5q0 84 -25.5 129.5t-70.5 45.5q-38 0 -76 -38q-62 -62 -101.5 -201.5
t-39.5 -259.5q0 -84 25.5 -129.5t70.5 -45.5zM214 757l4 18h160l-4 -18h-160z" />
    <glyph glyph-name="omacron" unicode="&#x14d;" horiz-adv-x="356" 
d="M224 528q50 0 79 -45t29 -125q0 -92 -30 -182t-80 -140q-43 -43 -90 -43q-50 0 -79 45t-29 125q0 92 30 182t80 140q43 43 90 43zM133 13q37 0 73 36q45 45 74.5 132.5t29.5 175.5q0 69 -23 110t-64 41q-37 0 -73 -36q-45 -45 -74.5 -132.5t-29.5 -175.5q0 -69 23 -110
t64 -41zM162 593l4 18h160l-4 -18h-160z" />
    <glyph glyph-name="Obreve" unicode="&#x14e;" horiz-adv-x="396" 
d="M277 707q55 0 86 -50t31 -145q0 -128 -41 -268.5t-107 -206.5q-44 -44 -92 -44q-55 0 -86 50t-31 145q0 128 41 268.5t107 206.5q44 44 92 44zM155 13q38 0 76 38q62 62 101.5 201.5t39.5 259.5q0 84 -25.5 129.5t-70.5 45.5q-38 0 -76 -38q-62 -62 -101.5 -201.5
t-39.5 -259.5q0 -84 25.5 -129.5t70.5 -45.5zM292 748q-37 0 -59.5 20t-21.5 59h18q-1 -28 15 -44.5t48 -16.5q65 0 87 61h18q-26 -79 -105 -79z" />
    <glyph glyph-name="obreve" unicode="&#x14f;" horiz-adv-x="356" 
d="M224 528q50 0 79 -45t29 -125q0 -92 -30 -182t-80 -140q-43 -43 -90 -43q-50 0 -79 45t-29 125q0 92 30 182t80 140q43 43 90 43zM133 13q37 0 73 36q45 45 74.5 132.5t29.5 175.5q0 69 -23 110t-64 41q-37 0 -73 -36q-45 -45 -74.5 -132.5t-29.5 -175.5q0 -69 23 -110
t64 -41zM239 584q-40 0 -59.5 25.5t-17.5 68.5h18q-4 -76 60 -76q62 0 90 76h18q-32 -94 -109 -94z" />
    <glyph glyph-name="Ohungarumlaut" unicode="&#x150;" horiz-adv-x="396" 
d="M277 707q55 0 86 -50t31 -145q0 -128 -41 -268.5t-107 -206.5q-44 -44 -92 -44q-55 0 -86 50t-31 145q0 128 41 268.5t107 206.5q44 44 92 44zM155 13q38 0 76 38q62 62 101.5 201.5t39.5 259.5q0 84 -25.5 129.5t-70.5 45.5q-38 0 -76 -38q-62 -62 -101.5 -201.5
t-39.5 -259.5q0 -84 25.5 -129.5t70.5 -45.5zM248 745l81 100l22 -13l-91 -87h-12zM317 745l78 100l22 -13l-88 -87h-12z" />
    <glyph glyph-name="ohungarumlaut" unicode="&#x151;" horiz-adv-x="356" 
d="M224 528q50 0 79 -45t29 -125q0 -92 -30 -182t-80 -140q-43 -43 -90 -43q-50 0 -79 45t-29 125q0 92 30 182t80 140q43 43 90 43zM133 13q37 0 73 36q45 45 74.5 132.5t29.5 175.5q0 69 -23 110t-64 41q-37 0 -73 -36q-45 -45 -74.5 -132.5t-29.5 -175.5q0 -69 23 -110
t64 -41zM192 581l89 119l22 -13l-99 -106h-12zM266 581l89 119l22 -13l-99 -106h-12z" />
    <glyph glyph-name="OE" unicode="&#x152;" horiz-adv-x="537" 
d="M223 0q-77 0 -121 44q-59 59 -59 188q0 97 34.5 212.5t103.5 184.5q71 71 166 71h244l-4 -20h-204l-61 -317h186l-4 -20h-186l-63 -323h206l-4 -20h-234zM118 59q39 -39 108 -39h7l128 660h-14q-85 0 -151 -66q-65 -65 -98 -176t-33 -207q0 -119 53 -172z" />
    <glyph glyph-name="oe" unicode="&#x153;" horiz-adv-x="603" 
d="M571 253h-249q-8 -44 -6 -86q2 -74 33 -114t81 -40q46 0 87 26l-1 -22q-39 -24 -87 -24q-58 0 -94 43t-40 129q-22 -70 -66 -121t-97 -51q-50 0 -79 45t-29 125q0 92 30 182t80 140q43 43 90 43q48 0 77 -43t30 -122q22 64 65 114.5t95 50.5q45 0 69.5 -40t24.5 -115
q0 -55 -14 -120zM133 13q37 0 73 36q45 45 74.5 132.5t29.5 175.5q0 69 -23 110t-64 41q-37 0 -73 -36q-45 -45 -74.5 -132.5t-29.5 -175.5q0 -69 23 -110t64 -41zM419 473q-67 -68 -94 -200h228q10 49 10 99q0 136 -73 136q-36 0 -71 -35z" />
    <glyph glyph-name="Racute" unicode="&#x154;" horiz-adv-x="365" 
d="M265 0l-87 297q-30 -5 -61 -5h-34l-56 -292h-22l136 700h55q90 0 137 -47q42 -42 42 -120q0 -105 -65 -170q-47 -47 -112 -62l89 -301h-22zM87 312h33q111 0 172 61t61 159q0 70 -37 107q-41 41 -122 41h-35zM252 740l81 99l22 -12l-91 -87h-12z" />
    <glyph glyph-name="racute" unicode="&#x155;" horiz-adv-x="201" 
d="M2 0l101 521h21l-17 -90q22 44 57 70t80 25l-4 -22h-2q-50 0 -91.5 -41t-55.5 -113l-68 -350h-21zM158 576l90 118l22 -12l-100 -106h-12z" />
    <glyph glyph-name="Rcommaaccent" unicode="&#x156;" horiz-adv-x="365" 
d="M265 0l-87 297q-30 -5 -61 -5h-34l-56 -292h-22l136 700h55q90 0 137 -47q42 -42 42 -120q0 -105 -65 -170q-47 -47 -112 -62l89 -301h-22zM87 312h33q111 0 172 61t61 159q0 70 -37 107q-41 41 -122 41h-35zM63 -175l-5 13q17 9 23 17.5t9 29.5h-11l10 50h28l-11 -58
q-4 -23 -13.5 -33t-29.5 -19z" />
    <glyph glyph-name="rcommaaccent" unicode="&#x157;" horiz-adv-x="201" 
d="M2 0l101 521h21l-17 -90q22 44 57 70t80 25l-4 -22h-2q-50 0 -91.5 -41t-55.5 -113l-68 -350h-21zM-38 -175l-5 13q17 9 23 17.5t9 29.5h-11l10 50h28l-11 -58q-4 -23 -13.5 -33t-29.5 -19z" />
    <glyph glyph-name="Rcaron" unicode="&#x158;" horiz-adv-x="365" 
d="M265 0l-87 297q-30 -5 -61 -5h-34l-56 -292h-22l136 700h55q90 0 137 -47q42 -42 42 -120q0 -105 -65 -170q-47 -47 -112 -62l89 -301h-22zM87 312h33q111 0 172 61t61 159q0 70 -37 107q-41 41 -122 41h-35zM356 842l-88 -97h-15l-50 97h14l47 -74l76 74h16z" />
    <glyph glyph-name="rcaron" unicode="&#x159;" horiz-adv-x="201" 
d="M2 0l101 521h21l-17 -90q22 44 57 70t80 25l-4 -22h-2q-50 0 -91.5 -41t-55.5 -113l-68 -350h-21zM165 581l-46 122h14l43 -98l80 98h16l-92 -122h-15z" />
    <glyph glyph-name="Sacute" unicode="&#x15a;" horiz-adv-x="312" 
d="M117 -7q-77 0 -133 66l9 23q55 -69 124 -69q55 0 87.5 40t32.5 101q0 33 -12 71.5t-24 63.5t-37 72q-25 46 -37 71.5t-23 62t-11 68.5q0 67 39 106q38 38 95 38q61 0 116 -52l-8 -23q-50 54 -108 55q-50 1 -81 -33.5t-31 -88.5q0 -31 10.5 -65.5t21.5 -57t37 -71.5
q38 -70 56.5 -119t18.5 -96q0 -79 -45 -124q-39 -39 -97 -39zM237 745l81 99l22 -12l-91 -87h-12z" />
    <glyph glyph-name="sacute" unicode="&#x15b;" horiz-adv-x="266" 
d="M97 -5q-67 0 -114 53l5 23q48 -56 108 -56q44 0 69.5 29t25.5 72q0 59 -60 142q-71 99 -71 155q0 52 32.5 83t78.5 31q51 0 95 -36l-5 -23q-43 39 -90 39q-42 0 -65.5 -26.5t-23.5 -65.5q0 -50 66 -144q65 -93 65 -154q0 -54 -33.5 -88t-82.5 -34zM165 581l90 118l22 -12
l-100 -106h-12z" />
    <glyph glyph-name="Scedilla" unicode="&#x15e;" horiz-adv-x="312" 
d="M51 -104l-21 10l66 89q-65 7 -112 64l9 23q55 -69 124 -69q55 0 87.5 40t32.5 101q0 33 -12 71.5t-24 63.5t-37 72q-25 46 -37 71.5t-23 62t-11 68.5q0 67 39 106q38 38 95 38q61 0 116 -52l-8 -23q-50 54 -108 55q-50 1 -81 -33.5t-31 -88.5q0 -31 10.5 -65.5t21.5 -57
t37 -71.5q38 -70 56.5 -119t18.5 -96q0 -79 -45 -124q-39 -39 -97 -39h-7z" />
    <glyph glyph-name="scedilla" unicode="&#x15f;" horiz-adv-x="266" 
d="M25 -105l-21 10l69 92q-55 10 -90 51l5 23q48 -56 108 -56q44 0 69.5 29t25.5 72q0 59 -60 142q-71 99 -71 155q0 52 32.5 83t78.5 31q51 0 95 -36l-5 -23q-43 39 -90 39q-42 0 -65.5 -26.5t-23.5 -65.5q0 -50 66 -144q65 -93 65 -154q0 -54 -33.5 -88t-82.5 -34
q-8 0 -11 1z" />
    <glyph glyph-name="Scaron" unicode="&#x160;" horiz-adv-x="312" 
d="M117 -7q-77 0 -133 66l9 23q55 -69 124 -69q55 0 87.5 40t32.5 101q0 33 -12 71.5t-24 63.5t-37 72q-25 46 -37 71.5t-23 62t-11 68.5q0 67 39 106q38 38 95 38q61 0 116 -52l-8 -23q-50 54 -108 55q-50 1 -81 -33.5t-31 -88.5q0 -31 10.5 -65.5t21.5 -57t37 -71.5
q38 -70 56.5 -119t18.5 -96q0 -79 -45 -124q-39 -39 -97 -39zM341 847l-88 -97h-15l-50 97h14l47 -74l76 74h16z" />
    <glyph glyph-name="scaron" unicode="&#x161;" horiz-adv-x="266" 
d="M97 -5q-67 0 -114 53l5 23q48 -56 108 -56q44 0 69.5 29t25.5 72q0 59 -60 142q-71 99 -71 155q0 52 32.5 83t78.5 31q51 0 95 -36l-5 -23q-43 39 -90 39q-42 0 -65.5 -26.5t-23.5 -65.5q0 -50 66 -144q65 -93 65 -154q0 -54 -33.5 -88t-82.5 -34zM171 586l-46 122h14
l43 -98l80 98h16l-92 -122h-15z" />
    <glyph glyph-name="Tcommaaccent" unicode="&#x162;" horiz-adv-x="274" 
d="M75 0l133 680h-119l4 20h260l-4 -20h-119l-133 -680h-22zM34 -175l-5 13q17 9 23 17.5t9 29.5h-11l10 50h28l-11 -58q-4 -23 -13.5 -33t-29.5 -19z" />
    <glyph glyph-name="tcommaaccent" unicode="&#x163;" horiz-adv-x="201" 
d="M91 -4q-26 0 -43 16t-17 46q0 14 7 51l76 393h-50l4 19h50l29 152h22l-29 -152h88l-4 -19h-88l-76 -390q-7 -37 -7 -51q0 -45 41 -45q21 0 41 9l-4 -20q-14 -9 -40 -9zM19 -175l-5 13q17 9 23 17.5t9 29.5h-11l10 50h28l-11 -58q-4 -23 -13.5 -33t-29.5 -19z" />
    <glyph glyph-name="Tcaron" unicode="&#x164;" horiz-adv-x="274" 
d="M75 0l133 680h-119l4 20h260l-4 -20h-119l-133 -680h-22zM327 842l-88 -97h-15l-50 97h14l47 -74l76 74h16z" />
    <glyph glyph-name="tcaron" unicode="&#x165;" horiz-adv-x="201" 
d="M91 -4q-26 0 -43 16t-17 46q0 14 7 51l76 393h-50l4 19h50l29 152h22l-29 -152h88l-4 -19h-88l-76 -390q-7 -37 -7 -51q0 -45 41 -45q21 0 41 9l-4 -20q-14 -9 -40 -9zM195 559l37 148h21v-2l-48 -146h-10z" />
    <glyph glyph-name="Umacron" unicode="&#x16a;" horiz-adv-x="395" 
d="M158 -7q-55 0 -91 34t-36 94q0 30 13 98l93 481h22l-93 -482q-13 -68 -13 -96q0 -52 30.5 -80.5t78.5 -28.5q52 0 89 37q38 38 54 123l101 527h22l-103 -533q-17 -89 -59 -131q-43 -43 -108 -43zM208 747l4 18h160l-4 -18h-160z" />
    <glyph glyph-name="umacron" unicode="&#x16b;" horiz-adv-x="360" 
d="M119 -7q-38 0 -66.5 25t-28.5 81q0 35 17 120l59 302h21l-59 -300q-17 -87 -17 -119q0 -47 22 -68t56 -21q52 0 92 45t55 122l67 341h21l-101 -521h-21l17 91q-19 -42 -54 -70t-80 -28zM158 583l4 18h160l-4 -18h-160z" />
    <glyph glyph-name="Ubreve" unicode="&#x16c;" horiz-adv-x="395" 
d="M158 -7q-55 0 -91 34t-36 94q0 30 13 98l93 481h22l-93 -482q-13 -68 -13 -96q0 -52 30.5 -80.5t78.5 -28.5q52 0 89 37q38 38 54 123l101 527h22l-103 -533q-17 -89 -59 -131q-43 -43 -108 -43zM286 738q-37 0 -59.5 20t-21.5 59h18q-1 -28 15 -44.5t48 -16.5
q65 0 87 61h18q-26 -79 -105 -79z" />
    <glyph glyph-name="ubreve" unicode="&#x16d;" horiz-adv-x="360" 
d="M119 -7q-38 0 -66.5 25t-28.5 81q0 35 17 120l59 302h21l-59 -300q-17 -87 -17 -119q0 -47 22 -68t56 -21q52 0 92 45t55 122l67 341h21l-101 -521h-21l17 91q-19 -42 -54 -70t-80 -28zM235 574q-40 0 -59.5 25.5t-17.5 68.5h18q-4 -76 60 -76q62 0 90 76h18
q-32 -94 -109 -94z" />
    <glyph glyph-name="Uring" unicode="&#x16e;" horiz-adv-x="395" 
d="M158 -7q-55 0 -91 34t-36 94q0 30 13 98l93 481h22l-93 -482q-13 -68 -13 -96q0 -52 30.5 -80.5t78.5 -28.5q52 0 89 37q38 38 54 123l101 527h22l-103 -533q-17 -89 -59 -131q-43 -43 -108 -43zM302 868q29 0 47.5 -18t18.5 -45q0 -31 -22 -52t-54 -21q-29 0 -47.5 18
t-18.5 45q0 31 22 52t54 21zM293 746q26 0 43 17t17 41q0 22 -14.5 36t-37.5 14q-26 0 -43 -17t-17 -41q0 -22 14.5 -36t37.5 -14z" />
    <glyph glyph-name="uring" unicode="&#x16f;" horiz-adv-x="360" 
d="M119 -7q-38 0 -66.5 25t-28.5 81q0 35 17 120l59 302h21l-59 -300q-17 -87 -17 -119q0 -47 22 -68t56 -21q52 0 92 45t55 122l67 341h21l-101 -521h-21l17 91q-19 -42 -54 -70t-80 -28zM321 657q0 -32 -21 -54t-52 -22q-29 0 -47 19t-18 47q0 32 21 54t52 22q29 0 47 -19
t18 -47zM197 648q0 -24 14 -39t37 -15q26 0 42.5 18.5t16.5 43.5q0 24 -14 39t-37 15q-26 0 -42.5 -18.5t-16.5 -43.5z" />
    <glyph glyph-name="Uhungarumlaut" unicode="&#x170;" horiz-adv-x="395" 
d="M158 -7q-55 0 -91 34t-36 94q0 30 13 98l93 481h22l-93 -482q-13 -68 -13 -96q0 -52 30.5 -80.5t78.5 -28.5q52 0 89 37q38 38 54 123l101 527h22l-103 -533q-17 -89 -59 -131q-43 -43 -108 -43zM242 735l81 100l22 -13l-91 -87h-12zM311 735l78 100l22 -13l-88 -87h-12z
" />
    <glyph glyph-name="uhungarumlaut" unicode="&#x171;" horiz-adv-x="360" 
d="M119 -7q-38 0 -66.5 25t-28.5 81q0 35 17 120l59 302h21l-59 -300q-17 -87 -17 -119q0 -47 22 -68t56 -21q52 0 92 45t55 122l67 341h21l-101 -521h-21l17 91q-19 -42 -54 -70t-80 -28zM188 571l89 119l22 -13l-99 -106h-12zM262 571l89 119l22 -13l-99 -106h-12z" />
    <glyph glyph-name="Uogonek" unicode="&#x172;" horiz-adv-x="395" 
d="M155 -93l-3 -15q-8 -1 -14 -1q-46 0 -46 36q0 28 44 68q-47 5 -76 38t-29 88q0 30 13 98l93 481h22l-93 -482q-13 -68 -13 -96q0 -52 30.5 -80.5t78.5 -28.5q52 0 89 37q38 38 54 123l101 527h22l-103 -533q-17 -89 -59 -131q-43 -43 -108 -43h-8q-38 -38 -38 -62
q0 -26 43 -24z" />
    <glyph glyph-name="uogonek" unicode="&#x173;" horiz-adv-x="360" 
d="M250 -93l-3 -15q-8 -1 -14 -1q-46 0 -46 36q0 31 51 73h-2l17 91q-19 -42 -54 -70t-80 -28q-38 0 -66.5 25t-28.5 81q0 35 17 120l59 302h21l-59 -300q-17 -87 -17 -119q0 -47 22 -68t56 -21q52 0 92 45t55 122l67 341h21l-101 -521h-4q-46 -45 -46 -69q0 -26 43 -24z
" />
    <glyph glyph-name="Wcircumflex" unicode="&#x174;" horiz-adv-x="596" 
d="M100 -5l15 705h22l-17 -652l252 652h19l-1 -653l236 653h25l-259 -705h-21v647l-250 -647h-21zM310 745l88 97h15l50 -97h-14l-48 74l-75 -74h-16z" />
    <glyph glyph-name="wcircumflex" unicode="&#x175;" horiz-adv-x="492" 
d="M79 -3l-7 524h20l4 -476l191 476h16l8 -476l186 476h23l-209 -524h-17l-10 465l-187 -465h-18zM224 581l92 122h15l46 -122h-14l-43 98l-80 -98h-16z" />
    <glyph glyph-name="Ycircumflex" unicode="&#x176;" horiz-adv-x="330" 
d="M103 0l59 302l-68 398h23l61 -367l205 367h25l-224 -398l-59 -302h-22zM173 740l88 97h15l50 -97h-14l-48 74l-75 -74h-16z" />
    <glyph glyph-name="ycircumflex" unicode="&#x177;" horiz-adv-x="323" 
d="M103 14l-32 507h20l28 -472l213 472h22l-295 -651h-22zM136 576l92 122h15l46 -122h-14l-43 98l-80 -98h-16z" />
    <glyph glyph-name="Ydieresis" unicode="&#x178;" horiz-adv-x="330" 
d="M103 0l59 302l-68 398h23l61 -367l205 367h25l-224 -398l-59 -302h-22zM200 745l7 37h26l-7 -37h-26zM278 745l7 37h26l-7 -37h-26z" />
    <glyph glyph-name="Zacute" unicode="&#x179;" horiz-adv-x="308" 
d="M-23 0l4 19l353 661h-222l4 20h247l-4 -19l-353 -661h232l-4 -20h-257zM228 740l81 99l22 -12l-91 -87h-12z" />
    <glyph glyph-name="zacute" unicode="&#x17a;" horiz-adv-x="270" 
d="M-23 0l2 14l284 488h-188l4 19h213l-2 -14l-285 -488h198l-4 -19h-222zM174 576l90 118l22 -12l-100 -106h-12z" />
    <glyph glyph-name="Zdotaccent" unicode="&#x17b;" horiz-adv-x="308" 
d="M-23 0l4 19l353 661h-222l4 20h247l-4 -19l-353 -661h232l-4 -20h-257zM225 750l7 37h26l-7 -37h-26z" />
    <glyph glyph-name="zdotaccent" unicode="&#x17c;" horiz-adv-x="270" 
d="M-23 0l2 14l284 488h-188l4 19h213l-2 -14l-285 -488h198l-4 -19h-222zM176 586l7 37h26l-7 -37h-26z" />
    <glyph glyph-name="Zcaron" unicode="&#x17d;" horiz-adv-x="308" 
d="M-23 0l4 19l353 661h-222l4 20h247l-4 -19l-353 -661h232l-4 -20h-257zM332 842l-88 -97h-15l-50 97h14l47 -74l76 74h16z" />
    <glyph glyph-name="zcaron" unicode="&#x17e;" horiz-adv-x="270" 
d="M-23 0l2 14l284 488h-188l4 19h213l-2 -14l-285 -488h198l-4 -19h-222zM180 581l-46 122h14l43 -98l80 98h16l-92 -122h-15z" />
    <glyph glyph-name="Aringacute" unicode="&#x1fa;" horiz-adv-x="385" 
d="M-23 0l278 675q-41 14 -41 59q0 31 22 52t54 21q29 0 47.5 -18t18.5 -45q0 -28 -19 -48.5t-47 -24.5l17 -671h-22l-5 212h-193l-86 -212h-24zM95 232h185l-9 429zM281 685q26 0 43 17t17 41q0 22 -14.5 36t-37.5 14q-26 0 -43 -17t-17 -41q0 -22 14.5 -36t37.5 -14z
M295 830l76 79l22 -12l-86 -67h-12z" />
    <glyph glyph-name="aringacute" unicode="&#x1fb;" horiz-adv-x="330" 
d="M258 761l76 79l22 -12l-86 -67h-12zM100 -7q-45 0 -71.5 31t-26.5 88q0 110 59 169q40 40 98 40q53 0 106 -32l8 40q11 62 11 91q0 40 -23.5 63t-67.5 23q-43 0 -92 -23l4 23q44 20 91 20q51 0 81 -29t30 -79q0 -28 -11 -85l-65 -333h-22l17 88q-22 -41 -54.5 -68
t-71.5 -27zM102 13q46 0 87.5 50t54.5 116l17 88q-45 34 -103 34q-48 0 -81 -33q-53 -53 -53 -157q0 -45 20.5 -71.5t57.5 -26.5zM314 662q0 -32 -21 -54t-52 -22q-29 0 -47 19t-18 47q0 32 21 54t52 22q29 0 47 -19t18 -47zM190 653q0 -24 14 -39t37 -15q26 0 42.5 18.5
t16.5 43.5q0 24 -14 39t-37 15q-26 0 -42.5 -18.5t-16.5 -43.5z" />
    <glyph glyph-name="AEacute" unicode="&#x1fc;" horiz-adv-x="490" 
d="M-48 0l340 700h253l-4 -20h-204l-61 -317h186l-4 -20h-186l-63 -323h206l-4 -20h-228l41 212h-146l-102 -212h-24zM88 232h140l87 447h-12zM343 740l81 99l22 -12l-91 -87h-12z" />
    <glyph glyph-name="aeacute" unicode="&#x1fd;" horiz-adv-x="559" 
d="M385 -7q-108 0 -129 132q-66 -132 -156 -132q-45 0 -71.5 31t-26.5 88q0 110 59 169q40 40 98 40q53 0 106 -32l8 40q11 62 11 91q0 40 -23.5 63t-67.5 23q-43 0 -92 -23l4 23q44 20 91 20q53 0 84.5 -33t24.5 -88q25 51 61.5 87t80.5 36q45 0 69.5 -40t24.5 -115
q0 -55 -14 -120h-248q-6 -47 -5 -86q2 -75 32.5 -114.5t79.5 -39.5q46 0 87 26l-1 -22q-39 -24 -87 -24zM102 13q45 0 85.5 43.5t65.5 108.5q-1 47 8 102q-45 34 -103 34q-48 0 -81 -33q-53 -53 -53 -157q0 -45 20.5 -71.5t57.5 -26.5zM376 473q-66 -66 -93 -200h226
q10 49 10 99q0 136 -73 136q-35 0 -70 -35zM319 576l90 118l22 -12l-100 -106h-12z" />
    <glyph glyph-name="Oslashacute" unicode="&#x1fe;" horiz-adv-x="396" 
d="M280 707q66 0 95 -75l45 76h20l-58 -97q12 -42 12 -99q0 -127 -41.5 -267.5t-108.5 -207.5q-44 -44 -93 -44q-66 0 -95 74l-45 -75h-20l57 97q-11 42 -11 99q0 127 41.5 267.5t108.5 207.5q44 44 93 44zM59 188q0 -40 6 -72l295 490q-23 81 -81 81q-40 0 -76 -36
q-63 -63 -103.5 -203t-40.5 -260zM152 13q40 0 76 36q63 63 103.5 203t40.5 260q0 40 -6 71l-296 -490q23 -80 82 -80zM284 745l81 99l22 -12l-91 -87h-12z" />
    <glyph glyph-name="oslashacute" unicode="&#x1ff;" horiz-adv-x="354" 
d="M224 528q54 0 84 -55l37 54h19l-47 -73q15 -39 15 -96q0 -92 -30 -182t-80 -140q-43 -43 -90 -43q-56 0 -85 55l-36 -54h-19l47 72q-15 39 -15 97q0 92 30 182t80 140q43 43 90 43zM223 508q-37 0 -73 -36q-45 -45 -74.5 -132.5t-29.5 -175.5q0 -40 8 -75l241 361
q-23 58 -72 58zM310 357q0 43 -9 74l-240 -361q22 -57 72 -57q37 0 73 36q45 45 74.5 132.5t29.5 175.5zM228 581l90 118l22 -12l-100 -106h-12z" />
    <glyph glyph-name="Scommaaccent" unicode="&#x218;" horiz-adv-x="312" 
d="M117 -7q-77 0 -133 66l9 23q55 -69 124 -69q55 0 87.5 40t32.5 101q0 33 -12 71.5t-24 63.5t-37 72q-25 46 -37 71.5t-23 62t-11 68.5q0 67 39 106q38 38 95 38q61 0 116 -52l-8 -23q-50 54 -108 55q-50 1 -81 -33.5t-31 -88.5q0 -31 10.5 -65.5t21.5 -57t37 -71.5
q38 -70 56.5 -119t18.5 -96q0 -79 -45 -124q-39 -39 -97 -39zM47 -175l-5 13q17 9 23 17.5t9 29.5h-11l10 50h28l-11 -58q-4 -23 -13.5 -33t-29.5 -19z" />
    <glyph glyph-name="scommaaccent" unicode="&#x219;" horiz-adv-x="266" 
d="M97 -5q-67 0 -114 53l5 23q48 -56 108 -56q44 0 69.5 29t25.5 72q0 59 -60 142q-71 99 -71 155q0 52 32.5 83t78.5 31q51 0 95 -36l-5 -23q-43 39 -90 39q-42 0 -65.5 -26.5t-23.5 -65.5q0 -50 66 -144q65 -93 65 -154q0 -54 -33.5 -88t-82.5 -34zM11 -175l-5 13
q17 9 23 17.5t9 29.5h-11l10 50h28l-11 -58q-4 -23 -13.5 -33t-29.5 -19z" />
    <glyph glyph-name="schwa" unicode="&#x259;" horiz-adv-x="335" 
d="M19 148q0 55 14 120h249q7 52 6 86q-2 74 -33 114t-81 40q-46 0 -87 -26l1 22q39 24 87 24q59 0 95 -44t39 -130q3 -89 -27.5 -178.5t-80.5 -139.5q-43 -43 -88 -43t-69.5 40t-24.5 115zM185 48q67 67 93 200h-227q-10 -49 -10 -99q0 -136 73 -136q36 0 71 35z" />
    <glyph glyph-name="circumflex" unicode="&#x2c6;" 
d="M235 581l92 122h15l46 -122h-14l-43 98l-80 -98h-16z" />
    <glyph glyph-name="caron" unicode="&#x2c7;" 
d="M305 581l-46 122h14l43 -98l80 98h16l-92 -122h-15z" />
    <glyph glyph-name="breve" unicode="&#x2d8;" 
d="M314 579q-40 0 -59.5 25.5t-17.5 68.5h18q-4 -76 60 -76q62 0 90 76h18q-32 -94 -109 -94z" />
    <glyph glyph-name="dotaccent" unicode="&#x2d9;" 
d="M299 586l7 37h26l-7 -37h-26z" />
    <glyph glyph-name="ring" unicode="&#x2da;" 
d="M396 662q0 -32 -21 -54t-52 -22q-29 0 -47 19t-18 47q0 32 21 54t52 22q29 0 47 -19t18 -47zM272 653q0 -24 14 -39t37 -15q26 0 42.5 18.5t16.5 43.5q0 24 -14 39t-37 15q-26 0 -42.5 -18.5t-16.5 -43.5z" />
    <glyph glyph-name="ogonek" unicode="&#x2db;" 
d="M214 -93l-3 -15q-8 -1 -14 -1q-46 0 -46 36q0 30 56 77h14q-50 -48 -50 -73q0 -26 43 -24z" />
    <glyph glyph-name="tilde" unicode="&#x2dc;" 
d="M400 658l16 -4q-24 -67 -59 -67q-17 0 -39 25q-25 27 -36 27q-22 0 -42 -53l-16 4q24 67 59 67q17 0 43 -29q20 -23 32 -23q22 0 42 53z" />
    <glyph glyph-name="hungarumlaut" unicode="&#x2dd;" 
d="M225 576l89 119l22 -13l-99 -106h-12zM299 576l89 119l22 -13l-99 -106h-12z" />
    <glyph glyph-name="commaaccent" unicode="&#x326;" 
d="M150 -175l-5 13q17 9 23 17.5t9 29.5h-11l10 50h28l-11 -58q-4 -23 -13.5 -33t-29.5 -19z" />
    <glyph glyph-name="Wgrave" unicode="&#x1e80;" horiz-adv-x="596" 
d="M100 -5l15 705h22l-17 -652l252 652h19l-1 -653l236 653h25l-259 -705h-21v647l-250 -647h-21zM378 740l-67 88l21 11l57 -99h-11z" />
    <glyph glyph-name="wgrave" unicode="&#x1e81;" horiz-adv-x="492" 
d="M79 -3l-7 524h20l4 -476l191 476h16l8 -476l186 476h23l-209 -524h-17l-10 465l-187 -465h-18zM293 576l-76 107l21 11l66 -118h-11z" />
    <glyph glyph-name="Wacute" unicode="&#x1e82;" horiz-adv-x="596" 
d="M100 -5l15 705h22l-17 -652l252 652h19l-1 -653l236 653h25l-259 -705h-21v647l-250 -647h-21zM379 740l81 99l22 -12l-91 -87h-12z" />
    <glyph glyph-name="wacute" unicode="&#x1e83;" horiz-adv-x="492" 
d="M79 -3l-7 524h20l4 -476l191 476h16l8 -476l186 476h23l-209 -524h-17l-10 465l-187 -465h-18zM289 576l90 118l22 -12l-100 -106h-12z" />
    <glyph glyph-name="Wdieresis" unicode="&#x1e84;" horiz-adv-x="596" 
d="M100 -5l15 705h22l-17 -652l252 652h19l-1 -653l236 653h25l-259 -705h-21v647l-250 -647h-21zM337 750l7 37h26l-7 -37h-26zM415 750l7 37h26l-7 -37h-26z" />
    <glyph glyph-name="wdieresis" unicode="&#x1e85;" horiz-adv-x="492" 
d="M79 -3l-7 524h20l4 -476l191 476h16l8 -476l186 476h23l-209 -524h-17l-10 465l-187 -465h-18zM252 586l7 37h26l-7 -37h-26zM330 586l7 37h26l-7 -37h-26z" />
    <glyph glyph-name="Ygrave" unicode="&#x1ef2;" horiz-adv-x="330" 
d="M103 0l59 302l-68 398h23l61 -367l205 367h25l-224 -398l-59 -302h-22zM241 735l-67 88l21 11l57 -99h-11z" />
    <glyph glyph-name="ygrave" unicode="&#x1ef3;" horiz-adv-x="323" 
d="M103 14l-32 507h20l28 -472l213 472h22l-295 -651h-22zM205 571l-76 107l21 11l66 -118h-11z" />
    <glyph glyph-name="enspace" unicode="&#x2002;" 
 />
    <glyph glyph-name="emspace" unicode="&#x2003;" horiz-adv-x="1000" 
 />
    <glyph glyph-name="threeperemspace" unicode="&#x2004;" horiz-adv-x="333" 
 />
    <glyph glyph-name="fourperemspace" unicode="&#x2005;" horiz-adv-x="250" 
 />
    <glyph glyph-name="thinspace" unicode="&#x2009;" horiz-adv-x="100" 
 />
    <glyph glyph-name="hairspace" unicode="&#x200a;" horiz-adv-x="50" 
 />
    <glyph glyph-name="endash" unicode="&#x2013;" horiz-adv-x="382" 
d="M42 286l3 20h308l-3 -20h-308z" />
    <glyph glyph-name="emdash" unicode="&#x2014;" horiz-adv-x="562" 
d="M42 286l3 20h488l-3 -20h-488z" />
    <glyph glyph-name="quoteleft" unicode="&#x2018;" horiz-adv-x="85" 
d="M94 591l11 58q4 23 13.5 33t29.5 19l5 -13q-17 -9 -23 -17.5t-9 -29.5h11l-10 -50h-28z" />
    <glyph glyph-name="quoteright" unicode="&#x2019;" horiz-adv-x="85" 
d="M87 590l-5 13q17 9 23 17.5t9 29.5h-11l10 50h28l-11 -58q-4 -23 -13.5 -33t-29.5 -19z" />
    <glyph glyph-name="quotesinglbase" unicode="&#x201a;" horiz-adv-x="85" 
d="M-40 -60l-5 13q17 9 23 17.5t9 29.5h-11l10 50h28l-11 -58q-4 -23 -13.5 -33t-29.5 -19z" />
    <glyph glyph-name="quotedblleft" unicode="&#x201c;" horiz-adv-x="167" 
d="M94 591l11 58q4 23 13.5 33t29.5 19l5 -13q-17 -9 -23 -17.5t-9 -29.5h11l-10 -50h-28zM176 591l11 58q4 23 13.5 33t29.5 19l5 -13q-17 -9 -23 -17.5t-9 -29.5h11l-10 -50h-28z" />
    <glyph glyph-name="quotedblright" unicode="&#x201d;" horiz-adv-x="167" 
d="M87 590l-5 13q17 9 23 17.5t9 29.5h-11l10 50h28l-11 -58q-4 -23 -13.5 -33t-29.5 -19zM169 590l-5 13q17 9 23 17.5t9 29.5h-11l10 50h28l-11 -58q-4 -23 -13.5 -33t-29.5 -19z" />
    <glyph glyph-name="quotedblbase" unicode="&#x201e;" horiz-adv-x="167" 
d="M-40 -60l-5 13q17 9 23 17.5t9 29.5h-11l10 50h28l-11 -58q-4 -23 -13.5 -33t-29.5 -19zM42 -60l-5 13q17 9 23 17.5t9 29.5h-11l10 50h28l-11 -58q-4 -23 -13.5 -33t-29.5 -19z" />
    <glyph glyph-name="dagger" unicode="&#x2020;" horiz-adv-x="238" 
d="M104 238l61 295l-83 -5l4 23l81 -5l24 154h26l-36 -154l83 5l-4 -23l-81 5l-52 -295h-23z" />
    <glyph glyph-name="daggerdbl" unicode="&#x2021;" horiz-adv-x="238" 
d="M54 0l36 154l-82 -5l5 23l80 -5l31 183l40 183l-83 -5l5 23l81 -5l24 154h26l-36 -154l83 5l-5 -23l-81 5l-29 -183l-42 -183l83 5l-5 -23l-81 5l-24 -154h-26z" />
    <glyph glyph-name="bullet" unicode="&#x2022;" horiz-adv-x="295" 
d="M172 446q27 0 42.5 -16.5t15.5 -44.5q0 -69 -33 -102q-20 -20 -50 -20q-27 0 -42.5 16.5t-15.5 44.5q0 69 33 102q20 20 50 20z" />
    <glyph glyph-name="ellipsis" unicode="&#x2026;" horiz-adv-x="318" 
d="M-21 0l10 50h28l-10 -50h-28zM94 0l10 50h28l-10 -50h-28zM209 0l10 50h28l-10 -50h-28z" />
    <glyph glyph-name="perthousand" unicode="&#x2030;" horiz-adv-x="730" 
d="M24 0l227 353l223 347h21l-227 -353l-223 -347h-21zM151 372q-36 0 -56.5 28t-20.5 81q0 55 19.5 111t49.5 86q27 27 58 27q36 0 56.5 -28t20.5 -81q0 -55 -19.5 -111t-49.5 -86q-27 -27 -58 -27zM151 389q23 0 44 21q28 28 46 80.5t18 104.5q0 93 -58 93q-23 0 -44 -21
q-28 -28 -46 -80.5t-18 -104.5q0 -93 58 -93zM318 -5q-36 0 -56.5 28t-20.5 81q0 55 19.5 111t49.5 86q27 27 58 27q36 0 56.5 -28t20.5 -81q0 -55 -19.5 -111t-49.5 -86q-27 -27 -58 -27zM318 12q23 0 44 21q28 28 46 80.5t18 104.5q0 93 -58 93q-23 0 -44 -21
q-28 -28 -46 -80.5t-18 -104.5q0 -93 58 -93zM564 -5q-36 0 -56.5 28t-20.5 81q0 55 19.5 111t49.5 86q27 27 58 27q36 0 56.5 -28t20.5 -81q0 -55 -19.5 -111t-49.5 -86q-27 -27 -58 -27zM564 12q23 0 44 21q28 28 46 80.5t18 104.5q0 93 -58 93q-23 0 -44 -21
q-28 -28 -46 -80.5t-18 -104.5q0 -93 58 -93z" />
    <glyph glyph-name="guilsinglleft" unicode="&#x2039;" horiz-adv-x="181" 
d="M89 46l-73 207l1 4l153 208l15 -12l-147 -201l69 -199z" />
    <glyph glyph-name="guilsinglright" unicode="&#x203a;" horiz-adv-x="181" 
d="M89 465l73 -207l-1 -4l-153 -208l-15 12l147 201l-69 199z" />
    <glyph glyph-name="Euro" unicode="&#x20ac;" horiz-adv-x="347" 
d="M43 427l4 18h66q41 149 107 215q44 44 98 44q42 0 73 -26l-4 -23q-30 29 -70 29q-44 0 -81 -37q-61 -61 -101 -202h164l-4 -18h-165q-18 -73 -26 -146h163l-3 -18h-162q-2 -42 -2 -59q0 -188 100 -188q35 0 70 23l-5 -24q-29 -19 -67 -19q-120 0 -120 206q0 17 2 61h-67
l3 18h66q6 71 26 146h-65z" />
    <glyph glyph-name="published" unicode="&#x2117;" horiz-adv-x="513" 
d="M251 550h32q50 0 76 -27t26 -76q0 -58 -36 -102.5t-104 -44.5h-22l-27 -136h-20zM365 446q0 86 -82 86h-15l-42 -214h21q56 0 87 37t31 91zM323 711q99 0 148.5 -71.5t49.5 -185.5q0 -106 -36 -215.5t-103 -176.5q-72 -72 -156 -72q-99 0 -148.5 71.5t-49.5 185.5
q0 106 36 215.5t103 176.5q72 72 156 72zM225 6q77 0 142 65q67 67 102 177t35 210q0 98 -45 167.5t-135 69.5q-77 0 -142 -65q-67 -67 -102 -177t-35 -210q0 -98 45 -167.5t135 -69.5z" />
    <glyph glyph-name="servicemark" unicode="&#x2120;" horiz-adv-x="383" 
d="M120 382q-37 0 -63 30l6 17q24 -33 56 -33q25 0 38.5 18t13.5 45q0 32 -33 86q-34 59 -34 89q0 32 19 51q18 18 45 18q32 0 56 -24l-6 -17q-22 27 -51 27q-22 0 -34.5 -16t-12.5 -37q0 -26 33 -83q34 -61 34 -94q0 -37 -22 -59q-18 -18 -45 -18zM212 385l61 315h16
l28 -191l95 191h20l-61 -315h-15l54 279l-98 -192h-4l-27 191l-54 -278h-15z" />
    <glyph glyph-name="trademark" unicode="&#x2122;" horiz-adv-x="354" 
d="M78 385l58 301h-50l3 14h116l-3 -14h-51l-58 -301h-15zM183 385l61 315h16l28 -191l95 191h20l-61 -315h-15l54 279l-98 -192h-4l-27 191l-54 -278h-15z" />
    <glyph glyph-name="minus" unicode="&#x2212;" horiz-adv-x="328" 
d="M44 341l5 22h270l-5 -22h-270z" />
    <glyph glyph-name="Q.alt" horiz-adv-x="406" 
d="M277 707q55 0 86 -50t31 -145q0 -117 -35.5 -248t-94.5 -206l41 -64l-15 -12l-38 61l-8 -8q-42 -42 -90 -42q-55 0 -86 50t-31 145q0 128 41 268.5t107 206.5q44 44 92 44zM155 13q38 0 78 40l8 8l-63 101l15 12l60 -98q53 71 86 199t33 237q0 84 -25.5 129.5t-70.5 45.5
q-38 0 -76 -38q-62 -62 -101.5 -201.5t-39.5 -259.5q0 -84 25.5 -129.5t70.5 -45.5z" />
    <glyph glyph-name="a.alt" horiz-adv-x="366" 
d="M124 -7q-49 0 -75.5 45.5t-26.5 122.5q0 90 31.5 183t81.5 143q41 41 85 41q51 0 73.5 -44t22.5 -96l26 133h21l-101 -521h-21l24 125q-59 -132 -141 -132zM127 13q34 0 67 33q48 48 78.5 136t30.5 180q0 58 -19.5 102t-62.5 44q-36 0 -71 -35q-46 -46 -76 -136.5
t-30 -176.5q0 -66 21.5 -106.5t61.5 -40.5z" />
    <glyph glyph-name="aacute.alt" horiz-adv-x="366" 
d="M124 -7q-49 0 -75.5 45.5t-26.5 122.5q0 90 31.5 183t81.5 143q41 41 85 41q51 0 73.5 -44t22.5 -96l26 133h21l-101 -521h-21l24 125q-59 -132 -141 -132zM127 13q34 0 67 33q48 48 78.5 136t30.5 180q0 58 -19.5 102t-62.5 44q-36 0 -71 -35q-46 -46 -76 -136.5
t-30 -176.5q0 -66 21.5 -106.5t61.5 -40.5zM245 581l90 118l22 -12l-100 -106h-12z" />
    <glyph glyph-name="abreve.alt" horiz-adv-x="366" 
d="M124 -7q-49 0 -75.5 45.5t-26.5 122.5q0 90 31.5 183t81.5 143q41 41 85 41q51 0 73.5 -44t22.5 -96l26 133h21l-101 -521h-21l24 125q-59 -132 -141 -132zM127 13q34 0 67 33q48 48 78.5 136t30.5 180q0 58 -19.5 102t-62.5 44q-36 0 -71 -35q-46 -46 -76 -136.5
t-30 -176.5q0 -66 21.5 -106.5t61.5 -40.5zM256 584q-40 0 -59.5 25.5t-17.5 68.5h18q-4 -76 60 -76q62 0 90 76h18q-32 -94 -109 -94z" />
    <glyph glyph-name="acircumflex.alt" horiz-adv-x="366" 
d="M124 -7q-49 0 -75.5 45.5t-26.5 122.5q0 90 31.5 183t81.5 143q41 41 85 41q51 0 73.5 -44t22.5 -96l26 133h21l-101 -521h-21l24 125q-59 -132 -141 -132zM127 13q34 0 67 33q48 48 78.5 136t30.5 180q0 58 -19.5 102t-62.5 44q-36 0 -71 -35q-46 -46 -76 -136.5
t-30 -176.5q0 -66 21.5 -106.5t61.5 -40.5zM180 586l92 122h15l46 -122h-14l-43 98l-80 -98h-16z" />
    <glyph glyph-name="adieresis.alt" horiz-adv-x="366" 
d="M124 -7q-49 0 -75.5 45.5t-26.5 122.5q0 90 31.5 183t81.5 143q41 41 85 41q51 0 73.5 -44t22.5 -96l26 133h21l-101 -521h-21l24 125q-59 -132 -141 -132zM127 13q34 0 67 33q48 48 78.5 136t30.5 180q0 58 -19.5 102t-62.5 44q-36 0 -71 -35q-46 -46 -76 -136.5
t-30 -176.5q0 -66 21.5 -106.5t61.5 -40.5zM208 591l7 37h26l-7 -37h-26zM286 591l7 37h26l-7 -37h-26z" />
    <glyph glyph-name="agrave.alt" horiz-adv-x="366" 
d="M124 -7q-49 0 -75.5 45.5t-26.5 122.5q0 90 31.5 183t81.5 143q41 41 85 41q51 0 73.5 -44t22.5 -96l26 133h21l-101 -521h-21l24 125q-59 -132 -141 -132zM127 13q34 0 67 33q48 48 78.5 136t30.5 180q0 58 -19.5 102t-62.5 44q-36 0 -71 -35q-46 -46 -76 -136.5
t-30 -176.5q0 -66 21.5 -106.5t61.5 -40.5zM249 581l-76 107l21 11l66 -118h-11z" />
    <glyph glyph-name="amacron.alt" horiz-adv-x="366" 
d="M124 -7q-49 0 -75.5 45.5t-26.5 122.5q0 90 31.5 183t81.5 143q41 41 85 41q51 0 73.5 -44t22.5 -96l26 133h21l-101 -521h-21l24 125q-59 -132 -141 -132zM127 13q34 0 67 33q48 48 78.5 136t30.5 180q0 58 -19.5 102t-62.5 44q-36 0 -71 -35q-46 -46 -76 -136.5
t-30 -176.5q0 -66 21.5 -106.5t61.5 -40.5zM179 593l4 18h160l-4 -18h-160z" />
    <glyph glyph-name="aogonek.alt" horiz-adv-x="366" 
d="M256 -93l-3 -15q-8 -1 -14 -1q-46 0 -46 36q0 31 51 73h-3l24 125q-59 -132 -141 -132q-49 0 -75.5 45.5t-26.5 122.5q0 90 31.5 183t81.5 143q41 41 85 41q51 0 73.5 -44t22.5 -96l26 133h21l-101 -517h1l-1 -1v-3h-3q-46 -45 -46 -69q0 -26 43 -24zM127 13q34 0 67 33
q48 48 78.5 136t30.5 180q0 58 -19.5 102t-62.5 44q-36 0 -71 -35q-46 -46 -76 -136.5t-30 -176.5q0 -66 21.5 -106.5t61.5 -40.5z" />
    <glyph glyph-name="aring.alt" horiz-adv-x="366" 
d="M124 -7q-49 0 -75.5 45.5t-26.5 122.5q0 90 31.5 183t81.5 143q41 41 85 41q51 0 73.5 -44t22.5 -96l26 133h21l-101 -521h-21l24 125q-59 -132 -141 -132zM127 13q34 0 67 33q48 48 78.5 136t30.5 180q0 58 -19.5 102t-62.5 44q-36 0 -71 -35q-46 -46 -76 -136.5
t-30 -176.5q0 -66 21.5 -106.5t61.5 -40.5zM342 667q0 -32 -21 -54t-52 -22q-29 0 -47 19t-18 47q0 32 21 54t52 22q29 0 47 -19t18 -47zM218 658q0 -24 14 -39t37 -15q26 0 42.5 18.5t16.5 43.5q0 24 -14 39t-37 15q-26 0 -42.5 -18.5t-16.5 -43.5z" />
    <glyph glyph-name="aring.alt2" horiz-adv-x="330" 
d="M209 0l17 88q-22 -41 -54.5 -68t-71.5 -27q-45 0 -71.5 31t-26.5 88q0 110 59 169q40 40 98 40q53 0 106 -32l8 40q11 62 11 91q0 40 -23.5 63t-67.5 23q-43 0 -92 -23l4 23q38 17 83 20q-25 19 -25 53q0 32 21 54t52 22q29 0 47 -19t18 -47q0 -27 -14.5 -46.5
t-38.5 -26.5q59 -26 59 -98q0 -28 -11 -85l-65 -333h-22zM228 526q26 0 42.5 18.5t16.5 43.5q0 24 -14 39t-37 15q-26 0 -42.5 -18.5t-16.5 -43.5q0 -24 14 -39t37 -15zM102 13q46 0 87.5 50t54.5 116l17 88q-45 34 -103 34q-48 0 -81 -33q-53 -53 -53 -157
q0 -45 20.5 -71.5t57.5 -26.5z" />
    <glyph glyph-name="aringacute.alt" horiz-adv-x="366" 
d="M277 761l76 79l22 -12l-86 -67h-12zM124 -7q-49 0 -75.5 45.5t-26.5 122.5q0 90 31.5 183t81.5 143q41 41 85 41q51 0 73.5 -44t22.5 -96l26 133h21l-101 -521h-21l24 125q-59 -132 -141 -132zM127 13q34 0 67 33q48 48 78.5 136t30.5 180q0 58 -19.5 102t-62.5 44
q-36 0 -71 -35q-46 -46 -76 -136.5t-30 -176.5q0 -66 21.5 -106.5t61.5 -40.5zM333 662q0 -32 -21 -54t-52 -22q-29 0 -47 19t-18 47q0 32 21 54t52 22q29 0 47 -19t18 -47zM209 653q0 -24 14 -39t37 -15q26 0 42.5 18.5t16.5 43.5q0 24 -14 39t-37 15q-26 0 -42.5 -18.5
t-16.5 -43.5z" />
    <glyph glyph-name="aringacute.alt2" horiz-adv-x="331" 
d="M245 688l76 79l22 -12l-86 -67h-12zM209 0l17 88q-22 -41 -54.5 -68t-71.5 -27q-45 0 -71.5 31t-26.5 88q0 110 59 169q40 40 98 40q53 0 106 -32l8 40q11 62 11 91q0 40 -23.5 63t-67.5 23q-43 0 -92 -23l4 23q38 17 83 20q-25 19 -25 53q0 32 21 54t52 22q29 0 47 -19
t18 -47q0 -27 -14.5 -46.5t-38.5 -26.5q59 -26 59 -98q0 -28 -11 -85l-65 -333h-22zM228 526q26 0 42.5 18.5t16.5 43.5q0 24 -14 39t-37 15q-26 0 -42.5 -18.5t-16.5 -43.5q0 -24 14 -39t37 -15zM102 13q46 0 87.5 50t54.5 116l17 88q-45 34 -103 34q-48 0 -81 -33
q-53 -53 -53 -157q0 -45 20.5 -71.5t57.5 -26.5z" />
    <glyph glyph-name="atilde.alt" horiz-adv-x="366" 
d="M124 -7q-49 0 -75.5 45.5t-26.5 122.5q0 90 31.5 183t81.5 143q41 41 85 41q51 0 73.5 -44t22.5 -96l26 133h21l-101 -521h-21l24 125q-59 -132 -141 -132zM127 13q34 0 67 33q48 48 78.5 136t30.5 180q0 58 -19.5 102t-62.5 44q-36 0 -71 -35q-46 -46 -76 -136.5
t-30 -176.5q0 -66 21.5 -106.5t61.5 -40.5zM346 663l16 -4q-24 -67 -59 -67q-17 0 -39 25q-26 27 -36 27q-22 0 -42 -53l-16 4q24 67 59 67q17 0 43 -29q20 -23 32 -23q22 0 42 53z" />
    <glyph glyph-name="three.alt" horiz-adv-x="288" 
d="M69 -4q-55 0 -102 35l4 21q42 -36 99 -36q72 0 111 56t39 126q0 68 -38.5 108.5t-91.5 48.5l4 18q82 1 137 54.5t55 136.5q0 52 -27.5 86.5t-79.5 34.5q-40 0 -78 -22l4 21q27 21 76 21q61 0 94 -40t33 -101q0 -74 -44 -130.5t-123 -74.5q101 -48 101 -161
q0 -82 -47.5 -142t-125.5 -60z" />
    <glyph glyph-name="registered.alt" horiz-adv-x="513" 
d="M323 711q99 0 148.5 -71.5t49.5 -185.5q0 -106 -36 -215.5t-103 -176.5q-72 -72 -156 -72q-99 0 -148.5 71.5t-49.5 185.5q0 106 36 215.5t103 176.5q72 72 156 72zM225 6q77 0 142 65q67 67 102 177t35 210q0 98 -45 167.5t-135 69.5q-77 0 -142 -65q-67 -67 -102 -177
t-35 -210q0 -98 45 -167.5t135 -69.5zM218 319l-30 -155h-20l75 385h32q53 0 81 -28q26 -26 26 -71q0 -57 -37 -94q-19 -19 -47 -29l35 -163h-20l-35 158q-16 -3 -60 -3zM222 337h15q63 0 93 30q32 32 32 84q0 36 -21 57q-22 22 -64 22h-18z" />
    <glyph glyph-name="NUL" horiz-adv-x="0" 
 />
    <glyph glyph-name="hfjslug" horiz-adv-x="694" 
d="M255 276h8l11 34h1l11 -34h8l14 47h-8l-10 -35h-1l-11 35h-7l-11 -35h-1l-10 35h-8zM321 388q19 0 29 24h1l12 -24l12 6l-17 32q6 14 13 39l-13 3q-4 -18 -8 -30h-1l-16 31q23 21 23 42q0 31 -27 31q-12 0 -20 -9t-8 -22t14 -39q-23 -18 -23 -47q0 -16 8 -26.5t21 -10.5z
M50 -200v303q14 0 23 9.5t9 22.5t-9.5 22.5t-22.5 9.5v554h100l30 79h334l29 -79h101v-921h-208l-8 14h-163l-8 -14h-207zM523 277h8v12l8 8l15 -20h10l-20 26l18 20h-10l-20 -24h-1v24h-8v-46zM193 277h34v7h-26v13h23v7h-23v12h26v7h-34v-46zM184 391h15v79h47v-79h15v172
h-15v-79h-47v79h-15v-172zM132 277h8v32l25 -32h7v46h-8v-32l-25 32h-7v-46zM400 391h15v78h38v14h-38v66h43v14h-58v-172zM468 277h8v15h12l10 -15h9l-12 17q10 4 10 14q0 15 -17 15h-20v-46zM366 277h8v17l18 29h-9l-13 -22l-13 22h-9l18 -29v-17zM481 390q31 0 31 36v137
h-16v-137q0 -22 -16 -22q-8 0 -20 5v-15q10 -4 21 -4zM476 299v17h11q10 0 10 -8q0 -9 -10 -9h-11zM322 402q-16 0 -16 25q0 19 16 35l20 -39q-8 -21 -20 -21zM327 479q-12 22 -12 32q0 19 14 19q13 0 13 -19q0 -15 -15 -32zM426 283q-16 0 -16 17q0 6 4.5 11.5t11.5 5.5
t11.5 -5.5t4.5 -11.5q0 -17 -16 -17zM426 276q10 0 17 7t7 17q0 9 -7 16.5t-17 7.5t-17 -7.5t-7 -16.5q0 -10 7 -17t17 -7z" />
    <glyph glyph-name="i.dot" horiz-adv-x="135" 
d="M7 0l100 521h21l-100 -521h-21zM130 650l11 57h25l-11 -57h-25z" />
    <glyph glyph-name="caron.alt" 
d="M268 559l37 148h21v-2l-48 -146h-10z" />
    <glyph glyph-name="acute.cap" 
d="M293 740l81 99l22 -12l-91 -87h-12z" />
    <glyph glyph-name="hungarumlaut.cap" 
d="M257 740l81 100l22 -13l-91 -87h-12zM326 740l78 100l22 -13l-88 -87h-12z" />
    <glyph glyph-name="grave.cap" 
d="M382 740l-67 88l21 11l57 -99h-11z" />
    <glyph glyph-name="circumflex.cap" 
d="M268 745l88 97h15l50 -97h-14l-48 74l-75 -74h-16z" />
    <glyph glyph-name="caron.cap" 
d="M439 842l-88 -97h-15l-50 97h14l47 -74l76 74h16z" />
    <glyph glyph-name="breve.cap" 
d="M347 743q-37 0 -59.5 20t-21.5 59h18q-1 -28 15 -44.5t48 -16.5q65 0 87 61h18q-26 -79 -105 -79z" />
    <glyph glyph-name="tilde.cap" 
d="M270 749l-16 4q26 58 58 58q18 0 46 -23q27 -21 37 -21q20 0 41 44l16 -4q-26 -58 -58 -58q-18 0 -46 23q-27 21 -37 21q-20 0 -41 -44z" />
    <glyph glyph-name="macron.cap" 
d="M266 752l4 18h160l-4 -18h-160z" />
    <glyph glyph-name="dieresis.cap" 
d="M293 750l7 37h26l-7 -37h-26zM371 750l7 37h26l-7 -37h-26z" />
    <glyph glyph-name="dotaccent.cap" 
d="M331 750l7 37h26l-7 -37h-26z" />
    <glyph glyph-name="ring.cap" 
d="M363 883q29 0 47.5 -18t18.5 -45q0 -31 -22 -52t-54 -21q-29 0 -47.5 18t-18.5 45q0 31 22 52t54 21zM354 761q26 0 43 17t17 41q0 22 -14.5 36t-37.5 14q-26 0 -43 -17t-17 -41q0 -22 14.5 -36t37.5 -14z" />
    </font>
</defs>
</svg>
